<svg width="400" height="287" viewBox="0 0 400 287" fill="none" xmlns="http://www.w3.org/2000/svg">
<path d="M231.718 90.5309L222.814 90.7198L218.294 90.794C216.78 90.794 215.26 90.794 213.747 90.794H213.448V90.4905L213.407 82.9433V82.6061H213.747L222.733 82.6465C225.732 82.6465 228.725 82.7207 231.718 82.7545H231.909V82.9366C231.909 84.218 231.847 85.486 231.813 86.7472L231.718 90.5309ZM231.718 90.5309L231.623 86.7135C231.623 85.459 231.549 84.218 231.535 82.9838L231.718 83.1659C228.725 83.1659 225.732 83.2738 222.733 83.2738L213.747 83.321L214.086 82.9838L214.052 90.5309L213.747 90.2274C215.226 90.2274 216.706 90.2274 218.192 90.2679L222.658 90.3421L231.718 90.5309Z" fill="#F4F5F7"/>
<path d="M221.681 100.048L212.777 100.237L208.25 100.311C206.743 100.311 205.223 100.311 203.709 100.344H203.411V100.041L203.356 92.5073V92.17H203.696L212.682 92.2105C215.675 92.2105 218.675 92.2847 221.668 92.3184H221.858V92.5073C221.858 93.7887 221.803 95.0567 221.769 96.3179L221.681 100.048ZM221.681 100.048L221.586 96.2303C221.552 94.9758 221.512 93.7348 221.498 92.5005L221.681 92.6826C218.688 92.7163 215.688 92.7905 212.695 92.7905L203.709 92.8378L204.049 92.5005L204.035 100.048L203.73 99.7442C205.209 99.7442 206.689 99.7442 208.175 99.7847L212.634 99.8588L221.681 100.048Z" fill="#F4F5F7"/>
<path d="M241.742 100.048L232.837 100.237L228.317 100.311C226.804 100.311 225.29 100.311 223.77 100.344H223.471V100.041L223.431 92.5073V92.17H223.77L232.756 92.2105C235.756 92.2105 238.749 92.2847 241.742 92.3184H241.932V92.5073C241.932 93.7887 241.871 95.0567 241.844 96.3179L241.742 100.048ZM241.742 100.048L241.647 96.2303C241.647 94.9758 241.572 93.7348 241.559 92.5005L241.742 92.6826C238.749 92.7163 235.756 92.7905 232.756 92.7905L223.77 92.8378L224.109 92.5005L224.075 100.048L223.77 99.7442C225.256 99.7442 226.729 99.7442 228.215 99.7847L232.681 99.8588L241.742 100.048Z" fill="#F4F5F7"/>
<path d="M85.1799 140.468L76.2754 140.657L71.7485 140.731C70.2418 140.731 68.7215 140.731 67.208 140.765H66.9365V140.461V132.914V132.577H67.2759L76.2618 132.617C79.2549 132.617 82.2547 132.692 85.2478 132.725H85.4378V132.908C85.4378 134.189 85.3835 135.457 85.3496 136.718L85.1799 140.468ZM85.1799 140.468L85.0849 136.651C85.0509 135.396 85.0102 134.155 84.9966 132.921L85.1799 133.103C82.1868 133.137 79.187 133.211 76.1939 133.211L67.208 133.258L67.5474 132.921L67.5134 140.468L67.208 140.165C68.6876 140.165 70.1671 140.165 71.6535 140.205L76.1125 140.279L85.1799 140.468Z" fill="#F4F5F7"/>
<path d="M355.967 90.5243L347.063 90.7132L342.543 90.7874C341.029 90.8211 339.509 90.7874 337.996 90.8211H337.697V90.5176L337.656 82.9704V82.6332H337.996L346.982 82.6736C349.981 82.6736 352.974 82.7546 355.967 82.7883H356.158V82.9704C356.158 84.2519 356.103 85.5266 356.069 86.7811L355.967 90.5243ZM355.967 90.5243L355.872 86.7136C355.839 85.4524 355.798 84.2114 355.784 82.9771L355.967 83.1593C352.974 83.193 349.981 83.2672 346.982 83.2739L337.996 83.3144L338.335 82.9771L338.301 90.5243L337.996 90.2208C339.475 90.2208 340.955 90.2208 342.441 90.2613L346.907 90.3355L355.967 90.5243Z" fill="#F4F5F7"/>
<path d="M389.787 17.2245L380.883 17.4133L376.356 17.4875C374.849 17.4875 373.329 17.4875 371.815 17.528H371.517V17.2245V9.67732V9.34009H371.856L380.842 9.38056C383.835 9.38056 386.835 9.46149 389.828 9.49521H390.018V9.67732C390.018 10.9588 389.964 12.2335 389.93 13.488L389.787 17.2245ZM389.787 17.2245L389.692 13.4138C389.658 12.1526 389.617 10.9116 389.604 9.67732L389.787 9.85942C386.794 9.85942 383.794 9.96733 380.801 9.97408L371.815 10.0145L372.155 9.67732L372.121 17.2245L371.815 16.921C373.295 16.921 374.774 16.921 376.261 16.9614L380.72 17.0356L389.787 17.2245Z" fill="#F4F5F7"/>
<path d="M399.81 26.7412L390.906 26.9301L386.386 27.0043C384.872 27.038 383.352 27.0043 381.838 27.038H381.54V26.7345L381.499 19.1873V18.8501H381.838L390.824 18.8906C393.824 18.8906 396.817 18.9715 399.81 19.0052H400V19.1873C400 20.4688 399.939 21.7435 399.905 22.998L399.81 26.7412ZM399.81 26.7412L399.715 22.9306C399.715 21.6693 399.641 20.4283 399.627 19.1941L399.81 19.3762C396.817 19.4099 393.824 19.4841 390.824 19.4908L381.838 19.5313L382.178 19.1941V26.7412L381.872 26.4377C383.352 26.4377 384.831 26.4377 386.318 26.4782L390.784 26.5524L399.81 26.7412Z" fill="#F4F5F7"/>
<path d="M65.1308 17.2311L56.2195 17.4199L51.6994 17.4941C50.1927 17.4941 48.6724 17.4941 47.1589 17.5346H46.8535V17.2311V9.68391V9.34668H47.1996L56.1856 9.39389C59.1786 9.39389 62.1717 9.46808 65.1715 9.5018H65.3548V9.68391C65.3548 10.9654 65.2937 12.2401 65.2666 13.5013L65.1308 17.2311ZM65.1308 17.2311L65.029 13.4204C65.029 12.1592 64.9544 10.9182 64.9408 9.68391L65.1308 9.86601C62.131 9.90648 59.1379 9.97392 56.1449 9.98067L47.1589 10.0211L47.4983 9.68391L47.4576 17.2311L47.1589 16.968C48.6385 16.968 50.1113 16.968 51.5976 16.968L56.0634 17.0422L65.1308 17.2311Z" fill="#F4F5F7"/>
<path d="M341.786 43.6025C341.936 43.9389 341.988 44.3101 341.938 44.6746C341.888 45.0391 341.736 45.3825 341.501 45.6663C341.372 45.8282 341.25 45.9901 341.127 46.1587C341.005 46.3273 340.89 46.5027 340.775 46.6713C340.581 46.9837 340.304 47.2363 339.975 47.4008C339.645 47.5652 339.276 47.6349 338.908 47.602L336.336 47.3525L335.515 55.6685L338.08 55.9181C338.448 55.9604 338.797 56.1014 339.09 56.326C339.383 56.5506 339.608 56.8502 339.743 57.1928C339.891 57.5807 340.063 57.9591 340.259 58.3259C340.428 58.6519 340.504 59.0173 340.48 59.3832C340.456 59.7491 340.333 60.1017 340.123 60.4032L338.623 62.4805L345.458 67.3501L346.957 65.2728C347.177 64.9785 347.473 64.7491 347.814 64.6089C348.154 64.4687 348.527 64.4231 348.892 64.4769C349.306 64.5376 349.72 64.5781 350.141 64.5983C350.511 64.6094 350.87 64.7234 351.179 64.9272C351.487 65.1311 351.732 65.4167 351.885 65.7517L352.95 68.0853L360.613 64.6321L359.54 62.285C359.399 61.9537 359.35 61.5904 359.401 61.234C359.451 60.8775 359.598 60.5414 359.826 60.2616C359.955 60.1065 360.083 59.9378 360.199 59.776C360.314 59.6141 360.436 59.4387 360.552 59.2634C360.747 58.951 361.025 58.6985 361.356 58.5342C361.686 58.3698 362.057 58.3 362.425 58.3326L364.997 58.5889L365.825 50.2661L363.26 50.0166C362.893 49.9749 362.544 49.8349 362.252 49.6116C361.959 49.3882 361.732 49.0899 361.597 48.7486C361.446 48.3597 361.274 47.9792 361.081 47.6088C360.907 47.2843 360.827 46.9179 360.851 46.5509C360.875 46.1839 361.002 45.8309 361.217 45.5315L362.717 43.4541L355.842 38.5508L354.342 40.6282C354.126 40.9264 353.83 41.1589 353.488 41.2995C353.147 41.4401 352.772 41.4832 352.407 41.424C351.993 41.3633 351.573 41.3228 351.152 41.3026C350.783 41.2855 350.426 41.1691 350.119 40.966C349.812 40.7629 349.566 40.4806 349.408 40.1493L348.349 37.8157L340.686 41.2487L341.786 43.6025ZM354.681 47.3795C355.791 48.1678 356.64 49.2655 357.122 50.5337C357.603 51.8018 357.696 53.1834 357.387 54.5038C357.079 55.8241 356.383 57.0239 355.388 57.9513C354.393 58.8787 353.144 59.4921 351.799 59.7139C350.453 59.9356 349.071 59.7558 347.829 59.1972C346.586 58.6386 345.538 57.7262 344.817 56.5755C344.096 55.4248 343.735 54.0875 343.779 52.7327C343.823 51.3779 344.27 50.0665 345.064 48.9644C346.129 47.4889 347.74 46.4934 349.543 46.1963C351.346 45.8992 353.193 46.3247 354.681 47.3795Z" fill="#F4F5F7"/>
<path d="M55.7261 106.233C55.5927 106.454 55.4003 106.634 55.1703 106.753C54.9403 106.872 54.6816 106.925 54.423 106.907H53.9886H53.5542C53.2964 106.925 53.0386 106.872 52.8097 106.753C52.5807 106.634 52.3896 106.454 52.2579 106.233L51.3281 104.648L46.2243 107.575L47.127 109.133C47.2554 109.356 47.3183 109.611 47.3087 109.869C47.2991 110.126 47.2174 110.376 47.0727 110.59C46.9148 110.834 46.7698 111.086 46.6383 111.345C46.5218 111.575 46.3435 111.769 46.1231 111.905C45.9027 112.04 45.6488 112.113 45.3895 112.114H43.6113V117.975H45.4167C45.6759 117.976 45.9298 118.048 46.1503 118.184C46.3707 118.32 46.549 118.514 46.6655 118.744C46.797 119.003 46.942 119.255 47.0998 119.499C47.2445 119.713 47.3263 119.962 47.3359 120.22C47.3455 120.477 47.2825 120.732 47.1541 120.956L46.2515 122.514L51.3281 125.468L52.2376 123.903C52.3657 123.681 52.5551 123.499 52.7835 123.38C53.0119 123.26 53.2699 123.208 53.5271 123.229H53.9614H54.3958C54.6544 123.212 54.9128 123.265 55.1426 123.384C55.3725 123.503 55.5649 123.683 55.6989 123.903L56.6016 125.461L61.7054 122.534L60.8027 120.983C60.675 120.758 60.6118 120.503 60.6202 120.245C60.6286 119.986 60.7082 119.736 60.8502 119.519C61.0117 119.276 61.159 119.024 61.2914 118.764C61.4079 118.534 61.5862 118.34 61.8066 118.204C62.027 118.069 62.2809 117.996 62.5402 117.995H64.3387V112.134H62.5402C62.2809 112.133 62.027 112.06 61.8066 111.925C61.5862 111.789 61.4079 111.595 61.2914 111.365C61.159 111.105 61.0117 110.853 60.8502 110.61C60.7082 110.394 60.6286 110.143 60.6202 109.885C60.6118 109.627 60.675 109.371 60.8027 109.146L61.7054 107.595L56.6287 104.648L55.7261 106.233ZM58.8209 115.068C58.8209 116.016 58.5381 116.943 58.0081 117.731C57.4782 118.52 56.725 119.134 55.8436 119.498C54.9622 119.861 53.9923 119.956 53.0565 119.772C52.1206 119.587 51.2608 119.131 50.5856 118.461C49.9105 117.791 49.4504 116.937 49.2634 116.008C49.0764 115.078 49.171 114.114 49.5352 113.237C49.8994 112.361 50.5169 111.612 51.3095 111.084C52.1022 110.556 53.0345 110.274 53.9886 110.273C55.2643 110.28 56.4855 110.788 57.3856 111.686C58.2858 112.585 58.792 113.8 58.7938 115.068H58.8209Z" fill="#F4F5F7"/>
<path d="M324.1 17.7711C323.943 17.9725 323.733 18.1269 323.494 18.2174C323.254 18.3078 322.994 18.3308 322.742 18.2837L322.315 18.2163L321.88 18.1691C321.622 18.1574 321.372 18.0724 321.16 17.9243C320.948 17.7761 320.784 17.5708 320.686 17.3327L320.007 15.6736L314.577 17.9195L315.256 19.5787C315.348 19.8203 315.371 20.0825 315.322 20.3361C315.272 20.5897 315.153 20.8248 314.978 21.0153C314.789 21.2302 314.612 21.4554 314.449 21.6897C314.302 21.9065 314.097 22.0782 313.857 22.1855C313.617 22.2927 313.352 22.3313 313.091 22.2967L311.306 22.0607L310.566 27.888L312.351 28.1241C312.607 28.1581 312.848 28.2619 313.048 28.4238C313.248 28.5857 313.399 28.7994 313.485 29.0413C313.584 29.3167 313.697 29.5868 313.824 29.8507C313.939 30.0812 313.987 30.3388 313.963 30.5948C313.939 30.8508 313.844 31.0952 313.688 31.3007L312.602 32.7306L317.286 36.285L318.385 34.8551C318.543 34.6556 318.753 34.5029 318.993 34.4137C319.232 34.3245 319.491 34.3022 319.742 34.3493L320.177 34.4167L320.604 34.4572C320.863 34.4737 321.113 34.5612 321.325 34.7101C321.537 34.8589 321.703 35.0632 321.806 35.3003L322.484 36.9662L327.914 34.7135L327.235 33.0611C327.137 32.8222 327.107 32.5608 327.149 32.306C327.191 32.0512 327.303 31.813 327.473 31.6177C327.664 31.4028 327.843 31.1776 328.009 30.9433C328.156 30.7266 328.361 30.5553 328.601 30.4491C328.841 30.343 329.106 30.3062 329.366 30.343L331.158 30.5723L331.918 24.7653L330.133 24.5359C329.876 24.5017 329.633 24.3972 329.432 24.2341C329.23 24.071 329.079 23.8556 328.993 23.6119C328.897 23.3354 328.784 23.0651 328.654 22.8026C328.542 22.5699 328.496 22.3112 328.521 22.0545C328.546 21.7977 328.641 21.5527 328.796 21.3458L329.896 19.9227L325.213 16.3683L324.1 17.7711ZM326.02 26.937C325.893 27.876 325.489 28.7565 324.858 29.4673C324.228 30.1782 323.4 30.6875 322.478 30.931C321.557 31.1746 320.584 31.1414 319.681 30.8357C318.779 30.53 317.988 29.9655 317.408 29.2134C316.828 28.4613 316.485 27.5554 316.423 26.6099C316.361 25.6645 316.581 24.7219 317.058 23.9011C317.534 23.0803 318.244 22.4182 319.099 21.9982C319.954 21.5782 320.914 21.4192 321.86 21.5414C322.49 21.6228 323.098 21.8271 323.649 22.1426C324.199 22.4582 324.682 22.8787 325.068 23.3801C325.455 23.8814 325.738 24.4538 325.901 25.0642C326.065 25.6746 326.105 26.311 326.02 26.937Z" fill="#F4F5F7"/>
<path d="M273.101 41.5231C275.64 26.3324 265.306 11.9726 250.02 9.44962C234.733 6.92664 220.283 17.1959 217.744 32.3866C215.206 47.5773 225.539 61.9371 240.826 64.4601C256.112 66.9831 270.562 56.7139 273.101 41.5231Z" fill="#F4F5F7"/>
<path d="M264.69 57.2827C275.644 47.4162 276.474 30.594 266.546 19.709C256.618 8.82408 239.69 7.99838 228.736 17.8648C217.783 27.7312 216.952 44.5535 226.88 55.4384C236.809 66.3234 253.737 67.1491 264.69 57.2827Z" fill="#FAFBFC"/>
<path d="M252.671 61.8171C266.125 58.5503 274.367 45.0634 271.08 31.6931C267.793 18.3228 254.221 10.1323 240.767 13.399C227.312 16.6657 219.07 30.1527 222.357 43.523C225.645 56.8933 239.216 65.0838 252.671 61.8171Z" fill="white"/>
<path opacity="0.5" d="M271.224 32.292C259.801 39.1715 241.035 50.4552 230.543 56.6332C227.587 54.1464 225.25 51.014 223.715 47.4808L258.41 15.5183C261.645 17.2189 264.468 19.601 266.682 22.4982C268.895 25.3954 270.445 28.7378 271.224 32.292Z" fill="#F4F5F7"/>
<path opacity="0.5" d="M271.78 38.4563C271.687 41.2272 271.127 43.963 270.124 46.5498L238.843 61.2529C237.48 60.8038 236.158 60.2397 234.893 59.5668C244.34 54.1374 261.606 44.2701 271.78 38.4563Z" fill="#F4F5F7"/>
<path d="M246.96 14.4727H246.479V18.2496H246.96V14.4727Z" fill="#C1C7D0"/>
<path d="M235.288 17.4337L234.871 17.6731L236.771 20.944L237.189 20.7046L235.288 17.4337Z" fill="#C1C7D0"/>
<path d="M226.886 24.8759L226.646 25.2925L229.952 27.181L230.193 26.7644L226.886 24.8759Z" fill="#C1C7D0"/>
<path d="M227.26 37.3438H223.459V37.8226H227.26V37.3438Z" fill="#C1C7D0"/>
<path d="M229.741 47.0194L226.45 48.9084L226.691 49.3231L229.982 47.4341L229.741 47.0194Z" fill="#C1C7D0"/>
<path d="M236.779 54.2132L234.881 57.4855L235.298 57.7246L237.196 54.4524L236.779 54.2132Z" fill="#C1C7D0"/>
<path d="M246.96 56.9227H246.479V60.6997H246.96V56.9227Z" fill="#C1C7D0"/>
<path d="M256.654 54.2134L256.236 54.4529L258.137 57.7238L258.554 57.4844L256.654 54.2134Z" fill="#C1C7D0"/>
<path d="M263.681 47.0376L263.44 47.4523L266.732 49.3407L266.973 48.926L263.681 47.0376Z" fill="#C1C7D0"/>
<path d="M269.976 37.3438H266.175V37.8226H269.976V37.3438Z" fill="#C1C7D0"/>
<path d="M266.732 25.7982L263.44 27.6873L263.681 28.1019L266.973 26.2129L266.732 25.7982Z" fill="#C1C7D0"/>
<path d="M258.156 17.4596L256.257 20.7312L256.674 20.9705L258.573 17.6989L258.156 17.4596Z" fill="#C1C7D0"/>
<path d="M247.083 16.1794L247.911 39.266L245.528 39.239L246.438 16.1726L247.083 16.1794Z" fill="#C1C7D0"/>
<path d="M261.554 29.5336L245.923 39.4481L244.79 37.3708L261.248 28.967L261.554 29.5336Z" fill="#A6A6A6"/>
<path d="M247.531 37.587C247.531 37.747 247.483 37.9035 247.394 38.0366C247.304 38.1697 247.177 38.2734 247.028 38.3347C246.88 38.396 246.716 38.412 246.558 38.3808C246.4 38.3495 246.255 38.2724 246.141 38.1593C246.027 38.0461 245.949 37.9019 245.918 37.7449C245.887 37.5879 245.903 37.4251 245.964 37.2772C246.026 37.1293 246.13 37.0029 246.264 36.914C246.398 36.8251 246.556 36.7776 246.717 36.7776C246.824 36.7767 246.93 36.797 247.03 36.8374C247.129 36.8777 247.219 36.9373 247.295 37.0127C247.37 37.088 247.43 37.1776 247.471 37.2762C247.512 37.3748 247.532 37.4804 247.531 37.587Z" fill="#C1C7D0"/>
<path d="M174.911 54.7384C174.587 57.837 173.402 60.7851 171.49 63.2533C169.577 65.7215 167.011 67.6126 164.08 68.7153C161.148 69.818 157.965 70.089 154.887 69.4978C151.809 68.9067 148.957 67.4768 146.65 65.3678L138.2 66.5751L142.435 59.3045C141.458 56.9355 141.037 54.376 141.206 51.8211C141.375 49.2662 142.129 46.7834 143.411 44.5621C144.692 42.3407 146.467 40.4396 148.6 39.0035C150.733 37.5675 153.168 36.6346 155.719 36.2759C158.271 35.9172 160.87 36.1423 163.321 36.9338C165.771 37.7254 168.007 39.0627 169.858 40.8435C171.709 42.6244 173.127 44.8019 174.003 47.21C174.878 49.618 175.189 52.1929 174.911 54.7384Z" fill="white"/>
<path d="M174.911 54.7375C174.592 57.8337 173.418 60.7821 171.517 63.2559C170.584 64.5028 169.465 65.6013 168.198 66.5135C166.956 67.4548 165.584 68.2156 164.126 68.7729C162.666 69.3408 161.133 69.704 159.572 69.852C158.791 69.9228 158.006 69.9363 157.224 69.8925C156.438 69.8747 155.655 69.7958 154.882 69.6564C151.752 69.082 148.845 67.6527 146.487 65.5288L146.684 65.5895L138.234 66.8777L137.616 66.9721L137.928 66.4325L142.136 59.1484V59.4384C141.149 57.0509 140.723 54.471 140.89 51.895C141.057 49.3191 141.813 46.8149 143.1 44.5729C144.387 42.331 146.172 40.4103 148.319 38.9569C150.465 37.5035 152.917 36.5557 155.488 36.1856C158.059 35.8156 160.68 36.0329 163.154 36.8212C165.627 37.6094 167.887 38.9478 169.762 40.7346C171.637 42.5214 173.076 44.7095 173.972 47.1324C174.868 49.5554 175.196 52.1494 174.931 54.7172L174.911 54.7375ZM174.911 54.7375C175.185 52.2045 174.87 49.6428 173.989 47.2502C173.109 44.8575 171.687 42.6979 169.834 40.938C167.98 39.1781 165.744 37.8651 163.299 37.1003C160.854 36.3355 158.264 36.1394 155.731 36.5271C153.221 36.8972 150.829 37.8339 148.74 39.2654C146.674 40.7094 144.949 42.5828 143.684 44.7555C142.436 46.9334 141.7 49.3637 141.532 51.8643C141.376 54.3638 141.784 56.8664 142.727 59.1889L142.788 59.3373L142.706 59.4789L138.444 66.7293L138.146 66.2909L146.616 65.1106H146.731L146.813 65.1915C149.073 67.2956 151.88 68.7319 154.916 69.3394C155.672 69.4753 156.436 69.5542 157.203 69.5755C157.974 69.6295 158.747 69.6295 159.518 69.5755C161.063 69.4575 162.585 69.1261 164.038 68.5908C165.495 68.0635 166.867 67.3273 168.11 66.4056C168.734 65.9465 169.33 65.451 169.895 64.9218C170.444 64.3762 170.959 63.7973 171.436 63.1884C173.352 60.7415 174.554 57.8179 174.911 54.7375Z" fill="#06142D"/>
<path d="M159.348 55.4527V57.3614C159.35 57.5517 159.313 57.7404 159.239 57.9162C159.166 58.0919 159.057 58.2511 158.92 58.384C158.783 58.517 158.621 58.6211 158.442 58.6899C158.264 58.7587 158.073 58.7909 157.882 58.7845C157.496 58.7845 157.127 58.6324 156.855 58.3618C156.582 58.0911 156.429 57.724 156.429 57.3412V54.2791C156.429 54.2791 156.429 54.2791 156.429 54.2252C156.429 54.1712 156.429 54.2252 156.429 54.1645C156.438 53.7837 156.593 53.4208 156.864 53.1509C157.134 52.881 157.499 52.7247 157.882 52.7144C158.762 52.7144 159.606 52.3669 160.228 51.7484C160.851 51.1299 161.2 50.291 161.2 49.4163C161.2 48.5416 160.851 47.7027 160.228 47.0842C159.606 46.4657 158.762 46.1182 157.882 46.1182C157.306 46.1157 156.74 46.264 156.241 46.5482C155.742 46.8324 155.327 47.2424 155.038 47.7369C154.942 47.907 154.812 48.0562 154.657 48.1755C154.501 48.2949 154.323 48.382 154.133 48.4317C153.943 48.4814 153.745 48.4927 153.551 48.4649C153.357 48.437 153.17 48.3707 153.002 48.2697C152.838 48.1732 152.695 48.0454 152.581 47.8936C152.466 47.7418 152.384 47.5692 152.337 47.3855C152.29 47.2018 152.281 47.0108 152.309 46.8234C152.336 46.636 152.401 46.4559 152.5 46.2936C153.017 45.4037 153.749 44.6558 154.63 44.1173C155.511 43.5788 156.512 43.2666 157.545 43.209C158.577 43.1513 159.608 43.35 160.544 43.787C161.48 44.224 162.292 44.8857 162.906 45.7124C163.521 46.5391 163.918 47.5047 164.063 48.5222C164.208 49.5398 164.096 50.5772 163.737 51.5409C163.378 52.5046 162.783 53.3643 162.006 54.0426C161.229 54.7208 160.295 55.1961 159.287 55.4257L159.348 55.4527ZM159.348 61.9005V62.4266C159.352 62.6174 159.318 62.8071 159.247 62.9843C159.175 63.1615 159.068 63.3225 158.933 63.4575C158.797 63.5924 158.635 63.6986 158.457 63.7695C158.278 63.8404 158.087 63.8745 157.895 63.8699C157.51 63.8699 157.141 63.7178 156.868 63.4472C156.596 63.1765 156.443 62.8094 156.443 62.4266V61.9005C156.448 61.5193 156.603 61.1552 156.874 60.8857C157.145 60.6161 157.512 60.4624 157.895 60.4572C158.086 60.4554 158.276 60.4915 158.453 60.5634C158.63 60.6353 158.791 60.7415 158.926 60.8759C159.062 61.0103 159.168 61.1701 159.241 61.346C159.313 61.522 159.349 61.7105 159.348 61.9005Z" fill="#0067FF"/>
<path d="M200.199 287C310.546 287 400 277.512 400 265.809C400 254.105 310.546 244.617 200.199 244.617C89.8516 244.617 0.397461 254.105 0.397461 265.809C0.397461 277.512 89.8516 287 200.199 287Z" fill="#F4F5F7"/>
<path d="M319.401 137.695H151.355V258.746H319.401V137.695Z" fill="#0067FF"/>
<path d="M210.728 125.163H151.355V137.695H214.142L210.728 125.163Z" fill="#0067FF"/>
<g opacity="0.1">
<path opacity="0.1" d="M319.401 137.695H151.355V258.747H319.401V137.695Z" fill="black"/>
<path opacity="0.1" d="M210.727 125.163H151.354V137.695H214.141L210.727 125.163Z" fill="black"/>
</g>
<path d="M286.54 206.058C253.725 196.784 221.636 187.625 190.036 178.547L189.846 178.493L189.88 178.318C197.8 141.418 220.021 105.274 221.446 67.8146C221.446 67.7202 221.446 67.6258 221.446 67.5314L221.765 67.6191C254.573 76.4342 286.641 85.2628 318.208 94.1252L318.425 94.1859L318.377 94.3882C310.267 131.854 287.978 168.336 286.54 206.058ZM286.54 206.058C287.829 168.288 310.002 131.773 317.95 94.2668C318.011 94.3478 318.065 94.4354 318.126 94.5231C286.567 85.7215 254.519 76.9468 221.751 68.1856L222.084 67.99C220.523 105.422 198.234 141.553 190.266 178.432L190.11 178.203C221.683 187.389 253.731 196.67 286.54 206.058Z" fill="#FAFBFC"/>
<path d="M281.346 137.546C276.466 150.489 261.664 157.706 247.893 153.652C234.123 149.599 226.854 135.928 231.605 123.052C236.355 110.177 250.608 102.819 264.548 106.825C278.489 110.831 286.28 124.556 281.346 137.546Z" fill="#455A64"/>
<path d="M256.498 130.249C250.845 136.67 245.123 143.064 239.531 149.478C235.494 146.524 232.537 142.342 231.11 137.567C229.683 132.791 229.863 127.683 231.624 123.019C236.307 110.204 250.695 102.846 264.568 106.791C278.44 110.737 286.245 124.637 281.338 137.513C273.063 135.085 264.783 132.663 256.498 130.249Z" fill="#FAFBFC"/>
<path d="M256.501 130.249C261.435 136.838 266.315 143.428 271.296 150.037C267.897 152.301 264.04 153.794 259.996 154.413C255.953 155.032 251.822 154.761 247.895 153.619C234.117 149.606 226.903 135.813 231.606 123.019C236.31 110.224 250.678 102.846 264.55 106.791C278.423 110.737 286.228 124.637 281.321 137.513C273.059 135.085 264.785 132.663 256.501 130.249Z" fill="#FAFBFC"/>
<path d="M229.196 84.1429C242.512 87.821 255.735 91.5035 268.865 95.1905C268.635 96.1415 268.397 97.0992 268.187 98.057C255.101 94.3699 241.935 90.6874 228.687 87.0094C228.843 86.0517 229.019 85.1007 229.196 84.1429Z" fill="#FAFBFC"/>
<path d="M226.196 157.901C243.743 163.041 261.389 168.212 279.135 173.414C278.87 174.365 278.612 175.323 278.361 176.274C260.548 171.08 242.852 165.909 225.273 160.761C225.572 159.799 225.88 158.846 226.196 157.901Z" fill="#FAFBFC"/>
<path d="M223.9 165.057C241.546 170.215 259.33 175.401 277.252 180.617C277.022 181.575 276.804 182.533 276.574 183.484C258.593 178.263 240.748 173.068 223.038 167.897C223.33 166.946 223.608 166.002 223.9 165.057Z" fill="#FAFBFC"/>
<path d="M221.843 172.22C239.652 177.409 257.608 182.623 275.711 187.861C275.535 188.819 275.365 189.777 275.209 190.741C256.998 185.485 238.962 180.26 221.104 175.067C221.341 174.116 221.592 173.165 221.843 172.22Z" fill="#FAFBFC"/>
<path d="M215.819 157.983L209.467 156.115C209.786 155.17 210.112 154.233 210.437 153.289L216.81 155.15C216.462 156.094 216.132 157.039 215.819 157.983Z" fill="#0067FF"/>
<path d="M213.538 165.125L207.11 163.25C207.402 162.306 207.701 161.361 208.006 160.424L214.413 162.292C214.121 163.236 213.836 164.181 213.538 165.125Z" fill="#455A64"/>
<path d="M211.502 172.281L205.021 170.399C205.278 169.455 205.543 168.511 205.815 167.567L212.269 169.442C212.025 170.386 211.767 171.337 211.502 172.281Z" fill="#FAFBFC"/>
<path d="M316.91 121.602C316.575 164.682 316.168 207.281 315.689 249.398C262.52 252.507 205.93 234.621 153.847 244.38C154.172 201.305 154.58 158.704 155.068 116.577C208.237 113.475 264.82 131.362 316.91 121.602Z" fill="#0067FF"/>
<path opacity="0.8" d="M316.91 121.602C316.575 164.682 316.168 207.281 315.689 249.398C262.52 252.507 205.93 234.621 153.847 244.38C154.172 201.305 154.58 158.704 155.068 116.577C208.237 113.475 264.82 131.362 316.91 121.602Z" fill="white"/>
<path d="M177.383 230.008C177.659 206.627 177.955 183.365 178.272 160.222C179.629 160.222 181.012 160.249 182.419 160.303C182.102 183.405 181.797 206.597 181.502 229.88C180.127 229.925 178.754 229.967 177.383 230.008Z" fill="#FAFBFC"/>
<path d="M187.796 229.832C188.104 206.64 188.425 183.54 188.76 160.532C190.151 160.592 191.536 160.667 192.927 160.748C192.587 183.715 192.257 206.759 191.936 229.879C190.558 229.852 189.174 229.832 187.796 229.832Z" fill="#FAFBFC"/>
<path d="M198.268 230.075C198.602 207.026 198.942 184.052 199.286 161.152L203.473 161.476C203.116 184.349 202.765 207.28 202.421 230.27C201.046 230.198 199.661 230.133 198.268 230.075Z" fill="#FAFBFC"/>
<path d="M208.787 230.655C209.303 197.076 209.835 163.598 210.382 130.222L214.583 130.647C214.036 164.019 213.5 197.458 212.975 230.965C211.59 230.857 210.199 230.75 208.787 230.655Z" fill="#FAFBFC"/>
<path d="M219.376 231.505C219.91 198.043 220.455 164.651 221.012 131.328L225.22 131.787C224.672 165.123 224.125 198.49 223.577 231.889C222.179 231.755 220.774 231.626 219.376 231.505Z" fill="#FAFBFC"/>
<path d="M229.982 232.53C230.525 199.149 231.075 165.799 231.632 132.481L235.846 132.933C235.29 166.292 234.736 199.637 234.184 232.968L229.982 232.53Z" fill="#FAFBFC"/>
<path d="M240.598 233.657C241.154 200.321 241.706 166.969 242.254 133.601L246.455 134.019C245.916 167.432 245.369 200.797 244.812 234.115L240.598 233.657Z" fill="#FAFBFC"/>
<path d="M251.226 234.81C251.778 201.465 252.321 168.066 252.854 134.613C254.253 134.734 255.651 134.849 257.049 134.957C256.519 168.477 255.981 201.91 255.434 235.255C254.029 235.114 252.63 234.965 251.226 234.81Z" fill="#FAFBFC"/>
<path d="M261.841 235.909C262.384 202.505 262.911 169.007 263.422 135.415C264.814 135.509 266.212 135.59 267.596 135.664C267.103 169.338 266.585 202.883 266.042 236.3L261.841 235.909Z" fill="#FAFBFC"/>
<path d="M272.436 236.867C272.96 203.36 273.465 169.725 273.949 135.962C275.334 136.016 276.718 136.056 278.103 136.083C277.65 169.954 277.157 203.659 276.623 237.198L272.436 236.867Z" fill="#FAFBFC"/>
<path d="M282.988 237.616C283.491 203.96 283.966 170.141 284.414 136.157C285.771 136.157 287.146 136.144 288.54 136.117C288.119 170.226 287.667 204.131 287.183 237.832C285.78 237.773 284.382 237.701 282.988 237.616Z" fill="#FAFBFC"/>
<path d="M293.502 238.041C293.954 204.197 294.391 170.145 294.812 135.888C296.169 135.82 297.527 135.746 298.884 135.651C298.504 170.049 298.083 204.203 297.622 238.115C296.264 238.119 294.891 238.095 293.502 238.041Z" fill="#FAFBFC"/>
<path d="M313.517 125.696H156.223V247.469H313.517V125.696Z" fill="#F4F5F7"/>
<path d="M313.524 125.696L313.734 247.482V247.698H313.524L156.222 247.813H155.89V247.482L155.971 125.716V125.46H156.222L313.524 125.696ZM313.524 125.696L156.222 125.945L156.48 125.696L156.528 247.482L156.195 247.152L313.497 247.273L313.307 247.482L313.524 125.696Z" fill="#FAFBFC"/>
<path d="M189.837 234.142L189.722 186.58L189.837 139.017L189.959 186.58L189.837 234.142Z" fill="#C1C7D0"/>
<path d="M193.748 234.142L193.626 186.58L193.748 139.017L193.864 186.58L193.748 234.142Z" fill="#C1C7D0"/>
<path d="M197.65 234.142L197.527 186.58L197.65 139.017L197.772 186.58L197.65 234.142Z" fill="#C1C7D0"/>
<path d="M201.552 234.142L201.43 186.58L201.552 139.017L201.674 186.58L201.552 234.142Z" fill="#C1C7D0"/>
<path d="M205.454 234.142L205.332 186.58L205.454 139.017L205.576 186.58L205.454 234.142Z" fill="#C1C7D0"/>
<path d="M209.358 234.142L209.242 186.58L209.358 139.017L209.48 186.58L209.358 234.142Z" fill="#C1C7D0"/>
<path d="M213.265 234.142L213.143 186.58L213.265 139.017L213.38 186.58L213.265 234.142Z" fill="#C1C7D0"/>
<path d="M217.17 234.142L217.048 186.58L217.17 139.017L217.285 186.58L217.17 234.142Z" fill="#C1C7D0"/>
<path d="M221.072 234.142L220.95 186.58L221.072 139.017L221.195 186.58L221.072 234.142Z" fill="#C1C7D0"/>
<path d="M224.974 234.142L224.852 186.58L224.974 139.017L225.096 186.58L224.974 234.142Z" fill="#C1C7D0"/>
<path d="M228.877 234.142L228.755 186.58L228.877 139.017L228.999 186.58L228.877 234.142Z" fill="#C1C7D0"/>
<path d="M232.78 234.142L232.665 186.58L232.78 139.017L232.903 186.58L232.78 234.142Z" fill="#C1C7D0"/>
<path d="M236.689 234.142L236.566 186.58L236.689 139.017L236.804 186.58L236.689 234.142Z" fill="#C1C7D0"/>
<path d="M240.59 234.142L240.468 186.58L240.59 139.017L240.712 186.58L240.59 234.142Z" fill="#C1C7D0"/>
<path d="M244.493 234.142L244.371 186.58L244.493 139.017L244.615 186.58L244.493 234.142Z" fill="#C1C7D0"/>
<path d="M232.656 216.863V224.08H249.04V216.863H232.656Z" fill="#0067FF"/>
<path d="M223.922 203.481V210.698H249.04V203.481H223.922Z" fill="#0067FF"/>
<path d="M214.137 190.107V197.324H249.042V190.107H214.137Z" fill="#0067FF"/>
<path d="M209.934 176.719V183.936H249.04V176.719H209.934Z" fill="#0067FF"/>
<path d="M202.454 163.338V170.554H249.047V163.338H202.454Z" fill="#0067FF"/>
<path d="M195.05 149.957V157.173H249.04V149.957H195.05Z" fill="#0067FF"/>
<path d="M187.103 231.566L202.584 231.377L218.071 231.249C228.394 231.161 238.717 231.134 249.04 231.114L248.592 231.566V208.425L248.647 185.291L248.796 162.151L249.061 139.017L249.332 162.151L249.475 185.291L249.529 208.425V231.566V232.011H249.081C238.758 232.011 228.435 231.964 218.112 231.876L202.624 231.748L187.103 231.566Z" fill="#C1C7D0"/>
<path d="M252.318 216.87V224.086H252.977V216.87H252.318Z" fill="#C1C7D0"/>
<path d="M252.312 203.488V210.705H252.97V203.488H252.312Z" fill="#C1C7D0"/>
<path d="M252.312 190.107V197.324H252.97V190.107H252.312Z" fill="#C1C7D0"/>
<path d="M252.312 176.719V183.936H252.97V176.719H252.312Z" fill="#C1C7D0"/>
<path d="M252.318 163.338V170.554H252.977V163.338H252.318Z" fill="#C1C7D0"/>
<path d="M252.318 149.957V157.173H252.977V149.957H252.318Z" fill="#C1C7D0"/>
<path d="M234.727 223.27C234.666 219.745 234.389 216.227 233.899 212.735C233.457 209.245 232.83 205.78 232.019 202.355C230.467 195.497 228.109 188.844 224.995 182.533C221.936 176.203 217.944 170.36 213.152 165.2L212.262 164.228L211.319 163.304L209.426 161.463C208.068 160.33 206.799 159.109 205.353 158.091C202.563 155.91 199.614 153.937 196.53 152.189L196.564 152.129C206.172 156.94 214.4 164.089 220.481 172.909C222.522 175.828 224.337 178.896 225.911 182.088C229.028 188.482 231.335 195.235 232.779 202.193C234.29 209.114 234.944 216.192 234.727 223.27Z" fill="#06142D"/>
<path d="M201.62 150.138L201.871 151.137L196.916 152.364L198.511 157.186L197.52 157.503L195.586 151.629L201.62 150.138Z" fill="#06142D"/>
<path d="M277.437 236.179V136.98H273.398V236.179H277.437Z" fill="#FAFBFC"/>
<path d="M287.63 236.172V180.327H283.592V236.172H287.63Z" fill="#FAFBFC"/>
<path d="M177.649 214.502V158.657H173.611V214.502H177.649Z" fill="#FAFBFC"/>
<path d="M342.523 131.598L342.462 253.371L185.16 253.29L185.208 162.879L215.192 131.537L342.523 131.598Z" fill="#F4F5F7"/>
<path opacity="0.6" d="M342.523 131.598L342.462 253.371L185.16 253.29L185.208 162.879L215.192 131.537L342.523 131.598Z" fill="white"/>
<path d="M185.209 162.879L215.194 131.537L215.18 162.893L185.209 162.879Z" fill="#0067FF"/>
<path opacity="0.4" d="M185.209 162.879L215.194 131.537L215.18 162.893L185.209 162.879Z" fill="white"/>
<path d="M215.596 241.425L215.632 173.723L211.594 173.721L211.558 241.423L215.596 241.425Z" fill="#EBECF0"/>
<path d="M225.791 241.425L225.827 173.723L221.789 173.721L221.753 241.423L225.791 241.425Z" fill="#EBECF0"/>
<path d="M235.986 241.432L236.021 173.73L231.983 173.728L231.948 241.43L235.986 241.432Z" fill="#EBECF0"/>
<path d="M246.181 241.44L246.233 142.241L242.195 142.239L242.143 241.438L246.181 241.44Z" fill="#EBECF0"/>
<path d="M256.375 241.447L256.428 142.248L252.389 142.246L252.337 241.445L256.375 241.447Z" fill="#EBECF0"/>
<path d="M266.572 241.454L266.624 142.255L262.586 142.253L262.534 241.452L266.572 241.454Z" fill="#EBECF0"/>
<path d="M276.766 241.454L276.818 142.255L272.78 142.253L272.728 241.452L276.766 241.454Z" fill="#EBECF0"/>
<path d="M286.955 241.46L287.007 142.261L282.969 142.259L282.916 241.458L286.955 241.46Z" fill="#EBECF0"/>
<path d="M297.16 241.46L297.212 142.261L293.174 142.259L293.121 241.458L297.16 241.46Z" fill="#EBECF0"/>
<path d="M307.354 241.474L307.406 142.275L303.368 142.273L303.316 241.472L307.354 241.474Z" fill="#EBECF0"/>
<path d="M317.541 241.481L317.594 142.282L313.555 142.28L313.503 241.479L317.541 241.481Z" fill="#EBECF0"/>
<path d="M327.739 241.481L327.791 142.282L323.753 142.28L323.7 241.479L327.739 241.481Z" fill="#EBECF0"/>
<path d="M318.96 258.746H150.914L137.951 147.738H305.996L318.96 258.746Z" fill="#0067FF"/>
<path d="M195.987 136.245H136.614L137.951 147.738H200.738L195.987 136.245Z" fill="#0067FF"/>
<path d="M170.572 273.585C169.038 274.077 125.242 273.692 123.579 272.634C122.948 272.229 122.636 265.889 122.473 258.214C122.439 256.561 122.412 254.841 122.391 253.108L119.127 229.853L148.406 230.028L150.883 253.277L150.707 258.382C150.707 258.382 167.409 265.983 169.106 267.339C170.803 268.695 172.133 273.112 170.572 273.585Z" fill="#EB9481"/>
<path d="M170.574 273.585C169.04 274.077 125.244 273.693 123.581 272.634C122.814 272.141 122.509 262.881 122.394 253.074L150.899 253.243L150.722 258.349C150.722 258.349 167.425 265.95 169.122 267.305C170.819 268.661 172.135 273.113 170.574 273.585Z" fill="white"/>
<path d="M170.572 273.585C169.038 274.077 125.242 273.693 123.579 272.634C122.948 272.229 122.636 265.889 122.473 258.214L150.706 258.383C150.706 258.383 167.409 265.984 169.106 267.339C170.803 268.695 172.133 273.113 170.572 273.585Z" fill="#0067FF"/>
<path d="M169.962 271.837C162.618 271.595 132.993 271.298 125.717 271.615C125.663 271.615 125.663 271.655 125.717 271.655C132.986 272.06 162.618 272.114 169.962 271.952C170.097 271.952 170.097 271.837 169.962 271.837Z" fill="#06142D"/>
<path d="M166.306 265.754C165.489 265.724 164.675 265.863 163.916 266.162C163.156 266.462 162.468 266.915 161.894 267.494C160.858 268.526 160.26 269.914 160.225 271.372C160.225 271.419 160.306 271.419 160.313 271.372C160.571 269.928 161.295 268.607 162.377 267.609C163.458 266.611 164.838 265.991 166.306 265.842C166.315 265.838 166.322 265.832 166.327 265.824C166.333 265.816 166.336 265.807 166.336 265.798C166.336 265.788 166.333 265.779 166.327 265.771C166.322 265.763 166.315 265.757 166.306 265.754Z" fill="#06142D"/>
<path d="M153.552 259.131C150.613 259.064 147.199 260.069 145.346 262.436C145.278 262.53 145.407 262.632 145.495 262.584C148.079 261.271 150.796 260.234 153.599 259.489C153.642 259.477 153.678 259.45 153.703 259.413C153.727 259.377 153.737 259.333 153.731 259.289C153.726 259.246 153.704 259.206 153.671 259.177C153.638 259.148 153.596 259.132 153.552 259.131Z" fill="#06142D"/>
<path d="M155.845 260.028C152.906 259.961 149.492 260.966 147.646 263.34C147.572 263.427 147.701 263.529 147.789 263.488C150.355 262.172 153.056 261.134 155.845 260.392C155.885 260.381 155.921 260.358 155.946 260.325C155.971 260.292 155.985 260.252 155.985 260.21C155.985 260.169 155.971 260.129 155.946 260.096C155.921 260.063 155.885 260.039 155.845 260.028Z" fill="#06142D"/>
<path d="M158.071 260.932C155.132 260.864 151.718 261.863 149.872 264.237C149.798 264.324 149.933 264.426 150.015 264.385C152.596 263.066 155.313 262.028 158.118 261.289C158.161 261.278 158.198 261.251 158.222 261.214C158.246 261.178 158.256 261.134 158.251 261.09C158.245 261.047 158.224 261.007 158.191 260.978C158.158 260.949 158.115 260.932 158.071 260.932Z" fill="#06142D"/>
<path d="M160.331 261.829C157.392 261.762 153.978 262.76 152.132 265.134C152.057 265.228 152.193 265.329 152.281 265.282C154.862 263.968 157.576 262.93 160.378 262.186C160.421 262.175 160.457 262.148 160.482 262.111C160.506 262.075 160.516 262.031 160.51 261.987C160.505 261.944 160.483 261.904 160.45 261.875C160.417 261.846 160.375 261.829 160.331 261.829Z" fill="#06142D"/>
<path d="M127.653 264.702C124.355 264.702 124.321 269.774 127.619 269.794C130.918 269.815 130.951 264.723 127.653 264.702Z" fill="#06142D"/>
<path d="M156.796 251.368C155.316 250.127 153.402 251.307 152.506 252.575C150.963 254.769 150.027 257.328 149.791 259.994C149.79 260.006 149.792 260.017 149.796 260.028C149.8 260.039 149.806 260.049 149.815 260.057C149.824 260.065 149.834 260.07 149.845 260.074C149.856 260.077 149.868 260.077 149.88 260.075C149.891 260.131 149.915 260.183 149.95 260.227C149.985 260.272 150.03 260.307 150.082 260.331C150.134 260.355 150.19 260.366 150.247 260.364C150.304 260.361 150.359 260.346 150.409 260.318C152.513 258.895 154.936 257.62 156.517 255.597C157.461 254.464 158.194 252.542 156.796 251.368ZM153.131 257.539C152.113 258.268 151.095 258.935 150.07 259.697C150.561 258.231 151.127 256.79 151.766 255.381C152.084 254.704 152.449 254.051 152.859 253.425C153.504 252.461 156.409 250.053 156.673 253.229C156.823 254.983 154.346 256.683 153.131 257.539Z" fill="#06142D"/>
<path d="M142.461 261.04C145.013 261.451 147.66 260.75 150.178 260.366C150.232 260.351 150.282 260.325 150.325 260.288C150.367 260.251 150.4 260.205 150.422 260.154C150.444 260.102 150.453 260.047 150.45 259.991C150.446 259.935 150.43 259.881 150.402 259.833C150.412 259.826 150.42 259.817 150.425 259.806C150.431 259.796 150.434 259.784 150.434 259.772C150.434 259.76 150.431 259.748 150.425 259.738C150.42 259.727 150.412 259.718 150.402 259.711C148.409 257.896 145.97 256.635 143.33 256.056C141.782 255.746 139.59 256.143 139.346 258.045C139.102 259.947 140.968 260.797 142.461 261.04ZM140.697 259.361C138.735 256.838 142.515 256.663 143.649 256.939C144.376 257.131 145.091 257.37 145.787 257.654C147.239 258.228 148.583 259.003 149.961 259.678C148.719 259.785 147.49 259.995 146.248 260.143C144.762 260.339 141.782 260.75 140.697 259.361Z" fill="#06142D"/>
<path d="M77.4424 122.034C77.4424 122.034 110.699 179.93 111.588 183.976C112.945 190.195 119.562 251.523 119.562 251.523L152.323 251.321C152.323 251.321 146.893 197.256 141.342 179.397C138.315 169.651 122.338 143.219 114.873 130.161C114.194 128.995 114.397 123.66 114.397 123.66L77.4424 122.034Z" fill="#091E42"/>
<path d="M149.173 245.884C144.097 245.79 128.717 245.365 121.951 245.884C121.897 245.884 121.897 245.972 121.951 245.979C124.272 246.343 144.097 246.1 149.173 245.979C149.183 245.988 149.195 245.995 149.208 245.998C149.221 246 149.235 245.999 149.248 245.994C149.26 245.989 149.271 245.98 149.278 245.969C149.286 245.958 149.29 245.945 149.29 245.932C149.29 245.918 149.286 245.905 149.278 245.894C149.271 245.883 149.26 245.874 149.248 245.869C149.235 245.864 149.221 245.863 149.208 245.866C149.195 245.868 149.183 245.875 149.173 245.884Z" fill="#06142D"/>
<path d="M83.1772 127.376C85.3626 130.877 87.6701 134.303 89.903 137.776C92.1359 141.25 94.3689 144.723 96.5678 148.217C100.961 155.204 105.26 162.252 109.463 169.361C111.497 172.636 113.228 176.088 114.635 179.673C115.922 183.269 116.876 186.974 117.485 190.741C118.13 194.518 118.544 198.336 118.924 202.146C119.331 206.193 119.736 210.253 120.139 214.327C120.972 222.636 121.802 230.955 122.63 239.282C122.732 240.3 122.833 241.305 122.922 242.344C122.922 242.492 122.664 242.519 122.65 242.344C121.707 234.082 120.947 225.806 120.105 217.537L118.843 205.188C118.456 201.364 118.083 197.533 117.533 193.722C117.012 189.967 116.207 186.256 115.123 182.621C113.947 178.86 112.354 175.24 110.373 171.83C106.361 164.754 102.113 157.794 97.8574 150.847C93.6019 143.9 89.2379 136.866 84.745 129.986C84.1884 129.136 83.6319 128.293 83.055 127.457C83.0211 127.369 83.1364 127.309 83.1772 127.376Z" fill="#06142D"/>
<path d="M90.6157 275.945C89.0004 275.81 47.566 258.551 46.4258 256.926C46.376 256.833 46.3548 256.727 46.3647 256.622C46.3647 255.199 49.3374 250.249 51.7942 243.747C51.9503 243.329 53.0498 241.406 54.5701 238.803C58.7577 231.674 66.169 219.453 66.169 219.453L93.2558 230.534L79.9873 249.756L77.9037 254.423C77.9037 254.423 90.5139 267.697 91.5659 269.592C92.6178 271.487 92.2174 276.053 90.6157 275.945Z" fill="#EB9481"/>
<path d="M90.6157 275.945C89.0004 275.81 47.566 258.551 46.4258 256.925C46.376 256.832 46.3548 256.727 46.3647 256.622C46.3647 255.199 49.3374 250.248 51.7942 243.746C51.9503 243.328 53.0498 241.406 54.5701 238.803L79.9873 249.756L77.9037 254.423C77.9037 254.423 90.5139 267.696 91.5659 269.592C92.6178 271.487 92.2174 276.053 90.6157 275.945Z" fill="white"/>
<path d="M90.6076 275.945C88.9991 275.831 47.5579 258.551 46.4244 256.946C45.9901 256.339 47.9176 250.707 51.854 243.767L77.9635 254.444C77.9635 254.444 90.5804 267.717 91.6392 269.612C92.698 271.507 92.2161 276.053 90.6076 275.945Z" fill="#0067FF"/>
<path d="M90.6913 274.097C83.979 271.137 56.6207 259.819 49.7659 257.398C49.7048 257.398 49.6912 257.398 49.7659 257.438C56.356 260.521 83.7957 271.602 90.6641 274.205C90.7999 274.259 90.8406 274.158 90.6913 274.097Z" fill="#06142D"/>
<path d="M89.6041 267.089C88.8553 266.763 88.0464 266.594 87.2287 266.594C86.4109 266.594 85.6021 266.763 84.8532 267.089C83.502 267.66 82.4231 268.725 81.8398 270.064C81.8398 270.104 81.8941 270.138 81.9213 270.097C82.7054 268.855 83.8756 267.901 85.2546 267.378C86.6336 266.856 88.1462 266.795 89.5634 267.204C89.5787 267.209 89.5955 267.209 89.6102 267.202C89.6248 267.195 89.6361 267.182 89.6415 267.167C89.6469 267.152 89.646 267.135 89.639 267.12C89.632 267.106 89.6194 267.095 89.6041 267.089Z" fill="#06142D"/>
<path d="M80.2857 256.204C77.5709 255.044 74.0417 254.7 71.4626 256.204C71.3608 256.264 71.4626 256.406 71.5441 256.393C74.4326 256.137 77.3404 256.189 80.2178 256.548C80.2576 256.544 80.2952 256.528 80.325 256.502C80.3548 256.476 80.375 256.44 80.3827 256.401C80.3904 256.362 80.3851 256.322 80.3676 256.286C80.35 256.251 80.3213 256.222 80.2857 256.204Z" fill="#06142D"/>
<path d="M82.0435 257.877C79.3287 256.724 75.7995 256.373 73.2204 257.877C73.1186 257.938 73.2204 258.079 73.3019 258.073C76.1901 257.812 79.0982 257.861 81.9756 258.221C82.0154 258.218 82.0531 258.202 82.0828 258.175C82.1126 258.149 82.1329 258.113 82.1405 258.074C82.1482 258.035 82.1429 257.995 82.1254 257.959C82.1079 257.924 82.0791 257.895 82.0435 257.877Z" fill="#06142D"/>
<path d="M83.7954 259.556C81.0807 258.396 77.5582 258.052 74.9724 259.556C74.8706 259.61 74.9724 259.752 75.0538 259.745C77.9447 259.49 80.8546 259.542 83.7344 259.9C83.7737 259.896 83.8105 259.879 83.8393 259.852C83.8681 259.825 83.8874 259.789 83.8942 259.751C83.9011 259.712 83.8952 259.672 83.8774 259.637C83.8596 259.602 83.8308 259.574 83.7954 259.556Z" fill="#06142D"/>
<path d="M85.5532 261.228C82.8385 260.075 79.3092 259.724 76.7302 261.228C76.6284 261.289 76.7302 261.431 76.8116 261.424C79.7021 261.163 82.6124 261.213 85.4922 261.572C85.5315 261.568 85.5683 261.551 85.5971 261.524C85.6259 261.497 85.6452 261.462 85.6521 261.423C85.6589 261.384 85.653 261.345 85.6352 261.309C85.6174 261.274 85.5886 261.246 85.5532 261.228Z" fill="#06142D"/>
<path d="M54.1762 251.705C51.1289 250.464 49.1743 255.165 52.2216 256.426C55.269 257.688 57.2304 252.96 54.1762 251.705Z" fill="#06142D"/>
<path d="M86.2242 250.215C85.3215 248.515 83.1293 248.906 81.7923 249.736C79.5199 251.194 77.6751 253.223 76.4442 255.617C76.4386 255.627 76.4357 255.639 76.4356 255.651C76.4354 255.663 76.4381 255.674 76.4434 255.685C76.4487 255.695 76.4565 255.704 76.4661 255.711C76.4757 255.718 76.4868 255.723 76.4985 255.725C76.4871 255.78 76.4892 255.837 76.5045 255.891C76.5198 255.945 76.5479 255.994 76.5864 256.035C76.625 256.076 76.6729 256.107 76.7261 256.126C76.7793 256.145 76.8362 256.151 76.8921 256.143C79.3829 255.617 82.1045 255.354 84.3578 254.079C85.6677 253.337 87.0726 251.82 86.2242 250.215ZM80.5096 254.572C79.2947 254.862 78.0731 255.091 76.865 255.428C77.9102 254.288 78.9011 253.101 80.0616 252.056C80.6144 251.549 81.1992 251.078 81.8127 250.646C82.7764 249.972 86.3803 248.845 85.4301 251.887C84.8872 253.553 81.9484 254.228 80.5096 254.572Z" fill="#06142D"/>
<path d="M69.2849 253.836C71.4975 255.185 74.2122 255.502 76.6827 256.102C76.9406 256.17 77.1103 255.914 77.0967 255.698C77.1086 255.695 77.1198 255.689 77.1293 255.682C77.1388 255.674 77.1465 255.664 77.1517 255.653C77.1569 255.642 77.1596 255.63 77.1594 255.618C77.1593 255.606 77.1564 255.594 77.151 255.583C75.9832 253.159 74.1952 251.082 71.9658 249.56C70.6559 248.697 68.4705 248.245 67.5271 249.918C66.5837 251.59 67.9954 253.054 69.2849 253.836ZM68.294 251.624C67.4253 248.549 71.0088 249.803 71.9386 250.477C72.5393 250.926 73.1105 251.413 73.6489 251.934C74.7824 253.007 75.7393 254.221 76.7506 255.387C75.5561 255.023 74.3412 254.76 73.1331 254.437C71.6875 254.045 68.7691 253.317 68.294 251.624Z" fill="#06142D"/>
<path d="M82.1338 248.717L51.8164 236.118C51.8164 236.118 90.2781 181.38 90.6107 177.279C90.9025 173.644 74.7021 141.769 74.1659 132.529C73.5822 122.56 78.5028 114.912 83.8645 110.191L114.406 123.68C114.406 123.68 111.739 129.075 106.479 131.976C106.479 131.976 122.143 168.774 121.084 180.024C120.025 191.274 82.1338 248.717 82.1338 248.717Z" fill="#091E42"/>
<path d="M83.556 242.977C79.1784 241.042 80.4611 241.534 76.0564 239.646C73.8981 238.722 59.7677 232.665 57.5687 232.152C57.5212 232.152 57.4873 232.22 57.5687 232.247C59.4487 233.42 73.7217 239.234 75.8935 240.111C80.3322 241.918 79.0766 241.352 83.5356 243.106C83.5503 243.104 83.564 243.097 83.5746 243.087C83.5852 243.077 83.5922 243.064 83.5945 243.049C83.5968 243.035 83.5943 243.02 83.5873 243.007C83.5804 242.994 83.5694 242.984 83.556 242.977Z" fill="#06142D"/>
<path d="M111.669 131.355C108.386 132.068 105.17 133.06 102.059 134.323C102.038 134.334 102.023 134.352 102.014 134.374C102.005 134.396 102.005 134.42 102.012 134.442C102.019 134.464 102.034 134.483 102.053 134.496C102.073 134.509 102.097 134.514 102.12 134.512C105.344 133.615 108.629 132.785 111.791 131.726C111.838 131.708 111.875 131.672 111.896 131.627C111.917 131.582 111.921 131.531 111.905 131.484C111.889 131.437 111.856 131.397 111.813 131.373C111.769 131.349 111.718 131.343 111.669 131.355Z" fill="#06142D"/>
<path d="M107.957 130.019C107.647 130.557 107.37 131.114 107.129 131.685C106.897 132.119 106.752 132.593 106.701 133.081C106.704 133.101 106.713 133.119 106.726 133.135C106.738 133.15 106.755 133.161 106.774 133.167C106.793 133.174 106.813 133.175 106.833 133.17C106.852 133.166 106.87 133.156 106.884 133.142C107.219 132.749 107.491 132.308 107.692 131.834C107.964 131.321 108.249 130.809 108.507 130.289C108.683 129.945 108.154 129.689 107.957 130.019Z" fill="#06142D"/>
<path d="M108.378 127.092C108.574 126.614 108.771 126.135 108.982 125.663C109.192 125.191 109.45 124.685 109.66 124.179C109.66 124.098 109.816 124.179 109.782 124.24C109.586 124.718 109.457 125.224 109.294 125.723C109.131 126.222 108.961 126.708 108.792 127.2C108.473 128.118 108.113 129.021 107.678 129.898C108.195 129.929 108.712 129.846 109.192 129.655C109.675 129.36 110.052 128.921 110.271 128.401C110.556 127.861 110.814 127.315 111.106 126.789C111.457 126.216 111.757 125.613 112.002 124.988C112.002 124.907 112.151 124.988 112.124 125.042C111.681 126.374 111.104 127.657 110.4 128.873C110.108 129.345 109.864 129.838 109.328 130.02C108.744 130.176 108.133 130.208 107.536 130.114C107.461 130.114 107.366 130.114 107.393 129.999C107.671 129.014 107.999 128.044 108.378 127.092Z" fill="#06142D"/>
<path d="M106.979 133.156C108.065 135.524 109.015 137.878 110.033 140.238C111.051 142.599 111.954 144.872 112.849 147.212C114.659 151.947 116.277 156.749 117.702 161.618C118.399 164.024 119.037 166.448 119.616 168.889C120.244 171.327 120.697 173.806 120.973 176.308C121.217 178.805 120.97 181.324 120.247 183.727C119.499 186.103 118.543 188.41 117.39 190.62C116.711 192.016 116.46 191.827 116.799 191.119C117.763 189.096 120.295 183.026 120.193 177.886C120.073 175.407 119.714 172.945 119.121 170.535C118.578 168.066 117.953 165.618 117.274 163.183C115.917 158.388 114.336 153.68 112.693 148.986C111.77 146.355 110.773 143.745 109.836 141.122C108.899 138.498 107.915 136.09 106.863 133.204C106.863 133.19 106.868 133.178 106.875 133.167C106.882 133.156 106.893 133.147 106.905 133.142C106.918 133.137 106.931 133.136 106.944 133.138C106.957 133.141 106.969 133.147 106.979 133.156Z" fill="#06142D"/>
<path d="M83.9028 125.103C84.4525 124.907 85.2059 125.245 85.7624 125.346C86.4734 125.474 87.1922 125.555 87.9139 125.589C88.6291 125.62 89.3455 125.604 90.0586 125.541C90.7681 125.53 91.4653 125.355 92.0947 125.029C93.1397 124.301 94.0395 123.386 94.7484 122.331C95.5922 121.246 96.2925 120.059 96.832 118.797C96.832 118.723 96.9677 118.797 96.9406 118.851C96.703 119.573 96.5266 120.301 96.2211 121.009C95.9324 121.672 95.5897 122.31 95.1963 122.918C94.5467 124.14 93.5994 125.181 92.4408 125.946C91.1716 126.621 89.5428 126.58 88.1311 126.486C87.3161 126.426 86.5064 126.309 85.7081 126.135C85.1312 126.007 84.1675 125.899 83.801 125.393C83.7799 125.37 83.7655 125.341 83.7593 125.31C83.7531 125.28 83.7553 125.248 83.7657 125.218C83.7761 125.189 83.7943 125.162 83.8184 125.142C83.8425 125.122 83.8717 125.108 83.9028 125.103Z" fill="#06142D"/>
<path d="M60.583 230.453C65.6868 222.985 70.6979 215.455 75.6161 207.865C80.5344 200.276 85.3894 192.614 90.181 184.88C91.3212 183.039 92.6379 181.197 93.3844 179.154C94.1989 176.921 93.7781 174.756 93.0994 172.558C91.8131 168.539 90.2995 164.597 88.5657 160.748C86.8554 156.877 85.0093 153.073 83.1972 149.282C81.2856 145.524 79.5928 141.66 78.1273 137.708C76.8378 133.911 76.3763 129.979 77.4486 126.074C78.521 122.169 80.7675 118.723 83.109 115.492C83.7266 114.635 84.351 113.792 84.9686 112.942C85.0161 112.875 85.1179 112.942 85.0704 113.017C82.4913 116.389 79.9734 119.957 78.4395 123.936C77.6479 125.893 77.1891 127.967 77.0821 130.074C77.0431 132.213 77.3525 134.345 77.9984 136.387C79.1793 140.359 81.0797 144.136 82.8443 147.852C84.6089 151.569 86.5092 155.48 88.2738 159.318C90.0497 163.187 91.6219 167.144 92.984 171.175C93.5812 172.976 94.2464 174.864 94.1785 176.78C94.1106 178.884 93.0722 180.766 92.0067 182.526C87.3508 190.195 82.5049 197.762 77.6455 205.289C72.786 212.816 67.7501 220.329 62.7141 227.769L60.7527 230.622C60.678 230.709 60.5084 230.568 60.583 230.453Z" fill="#06142D"/>
<path d="M127.556 60.5037C125.52 57.3675 121.502 56.2209 117.464 56.6053C113.426 56.9898 108.498 58.5275 107.331 65.2721C106.388 70.7487 107.474 76.3062 106.788 82.4573C106.103 88.6083 97.775 102.86 107.806 111.358C116.812 118.999 137.146 115.135 139.196 101.679C140.818 91.0094 129.545 79.7392 128.696 75.3755C127.848 71.0117 129.83 63.9434 127.556 60.5037Z" fill="#06142D"/>
<path d="M128.697 66.7288C128.365 69.8364 128.627 72.9785 129.471 75.989C129.699 76.7654 130.033 77.5074 130.462 78.1945C130.876 78.869 131.324 79.503 131.765 80.137C132.668 81.3982 133.557 82.6527 134.385 83.9409C136.082 86.4864 137.405 89.2593 138.314 92.176C139.183 95.1242 139.5 98.2057 139.251 101.268C139.541 99.7409 139.661 98.1871 139.611 96.6342C139.541 95.0732 139.314 93.5232 138.932 92.0074C138.134 88.9756 136.838 86.0953 135.097 83.4823C134.249 82.1738 133.333 80.9126 132.423 79.6648C131.463 78.4931 130.674 77.192 130.082 75.8002C129.569 74.3647 129.223 72.8757 129.05 71.3623C128.839 69.8262 128.721 68.2789 128.697 66.7288Z" fill="#06142D"/>
<path d="M107.121 69.9323C106.856 73.0752 106.714 76.2182 106.3 79.3139C106.1 80.8582 105.81 82.3895 105.431 83.9002C105.044 85.3773 104.447 86.8409 103.918 88.3247C103.388 89.8085 102.9 91.3193 102.486 92.857C102.088 94.4058 101.822 95.9851 101.691 97.5782C101.588 99.1763 101.707 100.781 102.044 102.347C102.453 103.886 103.168 105.329 104.148 106.589C103.321 105.262 102.748 103.793 102.458 102.259C102.209 100.731 102.172 99.1766 102.35 97.6389C102.797 94.5552 103.596 91.5321 104.732 88.6282C105.241 87.1444 105.838 85.6808 106.218 84.1093C106.583 82.5561 106.83 80.978 106.958 79.3881C107.199 76.2421 107.253 73.0847 107.121 69.9323Z" fill="#06142D"/>
<path d="M112.015 85.8292C111.085 91.1034 111.648 113.927 114.322 121.211C117.444 129.703 124.428 144.655 126.865 144.642C129.186 144.642 141.837 137.29 140.439 135.247C139.041 133.203 129.376 117.987 128.019 115.182C127.204 113.516 122.209 96.7486 119.073 88.3584C116.223 80.764 113.298 78.572 112.015 85.8292Z" fill="#EB9481"/>
<path d="M111.146 100.533L125.921 102.03C125.921 102.03 119.874 86.9627 116.806 83.0306C113.413 78.6062 111.852 81.3108 111.119 86.5715C110.386 91.8323 111.146 100.533 111.146 100.533Z" fill="#FF666C"/>
<path d="M124.108 99.2105C123.606 99.0824 119.011 98.5361 118 98.4484C116.988 98.3607 112.909 97.9223 111.891 97.9088C111.887 97.9088 111.882 97.9097 111.878 97.9114C111.874 97.9131 111.871 97.9156 111.867 97.9187C111.864 97.9218 111.862 97.9255 111.86 97.9296C111.858 97.9337 111.857 97.9381 111.857 97.9425C111.857 97.947 111.858 97.9514 111.86 97.9554C111.862 97.9595 111.864 97.9633 111.867 97.9664C111.871 97.9695 111.874 97.972 111.878 97.9737C111.882 97.9754 111.887 97.9763 111.891 97.9763C112.903 98.1853 117.029 98.6507 118.047 98.7519C119.065 98.8531 123.626 99.2982 124.155 99.278C124.155 99.278 124.149 99.2173 124.108 99.2105Z" fill="#06142D"/>
<path d="M123.437 101.8L111.145 100.559C111.145 100.559 110.385 91.8521 111.145 86.5913C111.682 82.7537 112.639 80.2784 114.457 80.9462L123.437 101.8Z" fill="#06142D"/>
<path d="M115.014 126.52L116.786 111.796C116.786 111.796 122.398 107.662 121.747 102.354C121.421 99.6561 117.776 85.8904 114.716 81.7222C111.838 77.8104 106.123 78.7277 103.592 80.4947C95.5356 86.1265 88.9387 92.237 78.9482 113.449L115.014 126.52Z" fill="#FFE5E6"/>
<path d="M103.962 138.471L106.817 145.369L147.327 128.81L144.471 121.911L103.962 138.471Z" fill="#C1C7D0"/>
<path d="M82.6416 145.121L86.9581 155.554L115.253 143.987L110.93 133.554L82.6416 145.121Z" fill="#06142D"/>
<path d="M146.168 95.8453C149.631 90.0698 154.741 85.4447 160.85 82.5551C166.959 79.6655 173.793 78.641 180.488 79.6114C187.183 80.5818 193.438 83.5033 198.462 88.0066C203.486 92.5098 207.053 98.3925 208.713 104.911C210.372 111.429 210.049 118.289 207.785 124.625C205.52 130.961 201.416 136.487 195.991 140.505C190.566 144.522 184.064 146.851 177.307 147.196C170.55 147.541 163.842 145.887 158.031 142.444C150.248 137.821 144.628 130.318 142.403 121.582C140.179 112.846 141.533 103.591 146.168 95.8453ZM149.561 97.8687C146.494 102.981 145.021 108.883 145.33 114.827C145.638 120.772 147.713 126.492 151.292 131.264C154.872 136.037 159.795 139.647 165.439 141.639C171.084 143.63 177.196 143.914 183.002 142.454C188.809 140.993 194.049 137.855 198.061 133.435C202.073 129.015 204.675 123.512 205.539 117.622C206.404 111.732 205.491 105.72 202.917 100.345C200.342 94.9706 196.222 90.4755 191.077 87.4281C184.177 83.3416 175.928 82.1423 168.14 84.0933C160.351 86.0444 153.66 90.9865 149.534 97.835L149.561 97.8687Z" fill="#37474F"/>
<path d="M171.964 148.075C163.152 147.21 154.987 143.093 149.079 136.538C143.172 129.983 139.952 121.465 140.054 112.666C140.156 103.867 143.574 95.4262 149.632 89.0085C155.691 82.5909 163.949 78.663 172.779 78.0001C181.609 77.3371 190.368 79.9872 197.328 85.4274C204.288 90.8676 208.943 98.7027 210.374 107.386C211.806 116.07 209.91 124.972 205.061 132.335C200.212 139.697 192.761 144.986 184.18 147.158C180.194 148.173 176.059 148.484 171.964 148.075ZM178.921 80.4273C173.608 79.8848 168.242 80.6252 163.279 82.5854C158.316 84.5457 153.903 87.668 150.415 91.6867C146.926 95.7054 144.466 100.502 143.243 105.668C142.021 110.834 142.071 116.217 143.391 121.36C144.89 127.196 147.971 132.513 152.298 136.731C156.624 140.949 162.032 143.909 167.933 145.287C173.833 146.666 180.001 146.41 185.766 144.55C191.531 142.689 196.672 139.293 200.631 134.732C204.59 130.171 207.216 124.618 208.222 118.679C209.228 112.739 208.577 106.638 206.339 101.04C204.101 95.4423 200.362 90.561 195.528 86.9269C190.694 83.2927 184.95 81.0448 178.921 80.4273ZM172.364 144.197C167.131 143.663 162.118 141.827 157.787 138.859C153.456 135.891 149.948 131.886 147.586 127.215C145.223 122.544 144.083 117.357 144.27 112.133C144.458 106.908 145.966 101.815 148.657 97.3224C151.291 92.9252 154.975 89.2414 159.383 86.5975C163.792 83.9536 168.788 82.4313 173.931 82.1655C179.073 81.8997 184.201 82.8986 188.862 85.0737C193.523 87.2487 197.572 90.5328 200.65 94.6349C203.728 98.7369 205.74 103.53 206.508 108.59C207.276 113.649 206.776 118.819 205.052 123.641C203.329 128.463 200.435 132.788 196.627 136.232C192.82 139.677 188.216 142.134 183.223 143.388C179.678 144.282 176.004 144.556 172.364 144.197ZM150.408 98.3341C146.93 104.117 145.577 110.921 146.581 117.584C147.585 124.248 150.883 130.359 155.914 134.877C160.945 139.394 167.396 142.037 174.169 142.357C180.941 142.676 187.616 140.651 193.054 136.628C198.493 132.604 202.359 126.83 203.993 120.291C205.627 113.752 204.928 106.852 202.016 100.767C199.104 94.6824 194.158 89.7898 188.022 86.9233C181.886 84.0568 174.94 83.3938 168.367 85.0473C160.846 86.9457 154.39 91.7314 150.415 98.3544L150.408 98.3341Z" fill="#37474F"/>
<g opacity="0.2">
<path opacity="0.2" d="M186.745 86.5567C181.434 84.3568 175.585 83.7712 169.939 84.874C164.293 85.9769 159.103 88.7186 155.025 92.7525C150.947 96.7864 148.164 101.931 147.028 107.537C145.892 113.143 146.454 118.957 148.643 124.245C150.832 129.533 154.55 134.058 159.326 137.246C164.103 140.435 169.723 142.145 175.477 142.159C181.231 142.173 186.861 140.492 191.653 137.328C196.446 134.163 200.186 129.657 202.402 124.38C205.371 117.301 205.39 109.34 202.453 102.247C199.517 95.1544 193.867 89.5107 186.745 86.5567Z" fill="white"/>
<path opacity="0.2" d="M178.772 84.5011C171.147 83.6621 163.497 85.8462 157.482 90.5791C151.468 95.312 147.575 102.212 146.649 109.78L178.772 84.5011Z" fill="#F4F5F7"/>
<path opacity="0.2" d="M202.321 101.942L158.321 136.562C160.187 137.919 162.208 139.051 164.341 139.934C166.784 140.957 169.359 141.638 171.99 141.958L204.479 116.396C205.021 111.474 204.278 106.496 202.321 101.942Z" fill="#F4F5F7"/>
<path opacity="0.2" d="M189.366 87.8055L147.45 120.78C147.954 122.61 148.636 124.388 149.486 126.088L194.117 90.9687C192.645 89.7578 191.053 88.698 189.366 87.8055Z" fill="#F4F5F7"/>
<path opacity="0.2" d="M200.515 98.4281L155.273 134.012C155.531 134.262 155.782 134.498 156.047 134.734L201.038 99.3386C200.875 99.0149 200.705 98.7114 200.515 98.4281Z" fill="#F4F5F7"/>
<path opacity="0.2" d="M201.805 125.71L181.729 141.505C182.58 141.321 183.422 141.096 184.254 140.831L200.584 128.016C201.025 127.254 201.432 126.492 201.805 125.71Z" fill="#F4F5F7"/>
</g>
<path d="M100.925 82.0657C96.6623 84.9861 78.1542 99.8781 75.9553 108.444C74.5979 113.698 84.0182 132.151 86.5633 136.569C87.6764 138.491 100.986 131.908 101.495 129.588C102.004 127.268 92.4001 110.568 92.2236 108.828C92.2236 108.828 100.796 95.103 105.35 87.7918C109.653 80.8922 108.886 76.6161 100.925 82.0657Z" fill="#EB9481"/>
<path d="M106.98 142.18C108.493 144.514 112.409 146.342 111.052 147.92C109.864 149.329 107.258 147.798 107.258 147.798C107.258 147.798 109.633 150.462 107.937 151.616C106.24 152.769 103.715 150.51 103.715 150.51C103.715 150.51 105.792 152.641 103.993 153.666C102.195 154.691 99.7243 153.16 99.7243 153.16C99.7243 153.16 99.894 154.179 98.2991 154.334C96.0186 154.563 92.5776 151.009 91.227 148.736C89.8764 146.463 86.6255 137.128 86.1504 135.692L100.783 126.924C100.783 126.924 105.066 129.871 107.054 131.645C109.043 133.419 113.977 141 112.165 142.342C110.353 143.684 106.959 138.262 105.833 137.115C104.706 135.968 104.251 136.029 104.353 136.94C104.407 137.547 106.301 141.148 106.98 142.18Z" fill="#EB9481"/>
<path d="M107.181 147.664C103.713 145.283 102.607 143.617 100.978 139.847C100.978 139.772 100.829 139.799 100.856 139.88C102.111 143.745 103.191 145.998 107.073 147.839C107.263 147.933 107.344 147.778 107.181 147.664Z" fill="#06142D"/>
<path d="M103.872 150.577C100.478 147.785 99.2771 146.018 97.275 142.167C97.275 142.113 97.1528 142.167 97.1732 142.214C98.8156 146.153 99.9558 148.378 103.709 150.725C103.879 150.833 104.028 150.705 103.872 150.577Z" fill="#06142D"/>
<path d="M99.6972 153.106C96.6091 150.172 95.1974 148.291 93.7382 144.298C93.7284 144.283 93.7141 144.272 93.6974 144.266C93.6807 144.26 93.6625 144.26 93.6456 144.265C93.6287 144.271 93.6141 144.281 93.6038 144.296C93.5936 144.31 93.5884 144.327 93.5889 144.345C94.6748 148.554 96.4259 150.914 99.5954 153.187C99.8125 153.342 99.8872 153.288 99.6972 153.106Z" fill="#06142D"/>
<path d="M100.293 98.1109L86.6172 92.2971C86.6172 92.2971 99.2885 82.0521 103.87 80.0827C109.028 77.8637 109.035 80.9662 107.114 85.9167C105.193 90.8672 100.293 98.1109 100.293 98.1109Z" fill="#FF666C"/>
<path d="M89.5988 90.7056C90.1078 90.8338 94.3904 92.5806 95.3134 92.9785C96.2364 93.3765 100.024 95.0019 100.94 95.4673C100.981 95.4673 100.94 95.555 100.94 95.5347C99.9489 95.2312 96.1278 93.626 95.1776 93.2416C94.2275 92.8571 90.0331 91.0293 89.5988 90.7663C89.5309 90.7461 89.5648 90.6989 89.5988 90.7056Z" fill="#06142D"/>
<path d="M99.2137 97.6463C99.6345 97.7947 100.286 98.0442 100.286 98.0442C101.263 96.6346 105.553 89.0537 106.618 87.2529H106.666C106.132 88.3186 105.589 89.3775 105.037 90.4296L105.308 90.0722C105.634 89.6473 105.987 89.2291 106.286 88.7907C106.286 88.7907 106.374 88.7907 106.347 88.8312C106.078 89.2994 105.778 89.75 105.451 90.1801C105.22 90.4768 104.962 90.7601 104.704 91.0366C104.385 91.6436 104.073 92.2439 103.734 92.8374C102.709 94.6652 101.698 96.5942 100.537 98.341C100.066 98.1771 99.6116 97.9693 99.1798 97.7205C99.1051 97.7003 99.1527 97.6261 99.2137 97.6463Z" fill="#06142D"/>
<path d="M140.629 140.089C140.21 140.479 139.678 140.727 139.108 140.797C138.539 140.867 137.962 140.757 137.46 140.48C137.46 140.48 137.84 143.023 136.028 144.163C135.098 144.75 133.313 143.785 133.313 143.785C133.313 143.785 133.523 145.809 131.847 146.746C130.489 147.481 128.949 146.402 128.949 146.402C128.949 146.402 128.229 148.459 126.634 148.77C123.39 149.404 115.918 138.747 118.707 134.363C120.01 132.34 121.694 135.038 121.694 135.038C121.694 135.038 120.221 130.573 122.372 128.968C124.524 127.362 126.512 130.991 126.512 130.991C126.512 130.991 125.121 126.654 127.537 125.231C130.055 123.754 131.406 127.727 131.406 127.727C131.406 127.727 131.358 124.24 133.442 123.572C136.917 122.472 136.652 130.269 138.871 132.225L143.934 130.134C143.934 130.134 142.367 138.545 140.629 140.089Z" fill="#EB9481"/>
<path d="M128.697 146.268C128.697 146.301 128.697 146.349 128.649 146.322C125.189 143.309 122.733 139.322 121.604 134.89C121.604 134.748 121.795 134.633 121.856 134.782C123.564 138.92 125.868 142.789 128.697 146.268Z" fill="#06142D"/>
<path d="M133.345 143.853C133.379 143.893 133.345 143.947 133.271 143.913C129.877 140.892 126.904 136.069 126.368 130.964C126.368 130.788 126.511 130.613 126.545 130.815C127.162 134.174 130.644 140.629 133.345 143.853Z" fill="#06142D"/>
<path d="M131.519 127.376C132.198 132.252 134.431 136.413 137.315 140.366C137.349 140.42 137.275 140.467 137.234 140.433C135.293 138.882 133.718 136.171 132.673 133.965C131.649 131.934 131.181 129.671 131.316 127.403C131.356 127.315 131.506 127.275 131.519 127.376Z" fill="#06142D"/>
<path d="M121.661 134.748C121.338 133.859 121.153 132.926 121.111 131.982C121.025 131.004 121.3 130.029 121.885 129.237C122.209 128.837 122.65 128.547 123.147 128.408C123.666 128.299 124.206 128.396 124.654 128.677C125.476 129.228 126.14 129.981 126.581 130.863L126.147 131.031C125.881 130.096 125.775 129.122 125.835 128.151C125.876 127.145 126.281 126.187 126.975 125.454C127.343 125.092 127.799 124.832 128.298 124.698C128.559 124.639 128.828 124.634 129.09 124.681C129.353 124.729 129.603 124.829 129.826 124.975C130.617 125.577 131.204 126.405 131.509 127.349L131.19 127.396C131.228 126.939 131.312 126.487 131.441 126.047C131.562 125.595 131.75 125.163 131.997 124.766C132.24 124.358 132.583 124.019 132.995 123.781C133.413 123.569 133.887 123.489 134.352 123.552C133.896 123.531 133.443 123.644 133.049 123.875C132.676 124.124 132.372 124.463 132.167 124.86C131.759 125.664 131.528 126.544 131.488 127.443L131.448 128.118L131.169 127.443C130.857 126.596 130.3 125.859 129.568 125.325C129.395 125.211 129.2 125.134 128.995 125.099C128.791 125.064 128.581 125.072 128.38 125.123C127.959 125.246 127.579 125.479 127.28 125.798C126.676 126.457 126.333 127.313 126.317 128.205C126.253 129.113 126.341 130.024 126.575 130.903L127.056 132.792L126.133 131.079C125.739 130.269 125.143 129.573 124.403 129.055C124.05 128.82 123.62 128.728 123.201 128.799C122.776 128.902 122.395 129.138 122.116 129.473C121.555 130.196 121.265 131.09 121.294 132.003C121.289 132.93 121.413 133.854 121.661 134.748Z" fill="#06142D"/>
<path d="M109.293 81.742C109.239 82.4165 110.773 86.9691 113.922 87.5424C115.558 87.8391 116.583 83.4282 116.583 83.4282L116.793 83.0707L119.759 78.0865L114.723 71.9827L113.983 71.1531C113.983 71.1531 113.264 72.5694 112.381 74.3433L112.259 74.5995C112.204 74.6911 112.154 74.7857 112.11 74.8828C111.974 75.1459 111.838 75.4156 111.71 75.6854C111.581 75.9552 111.506 76.0968 111.411 76.3127L111.112 76.9871C110.401 78.5306 109.794 80.119 109.293 81.742Z" fill="#EB9481"/>
<path d="M112.408 74.3433C112.461 76.0292 112.883 77.6835 113.645 79.1908C114.407 80.6981 115.49 82.0222 116.82 83.0707L119.786 78.0865L114.75 71.9827L114.01 71.1531C114.01 71.1531 113.263 72.5694 112.408 74.3433Z" fill="#06142D"/>
<path d="M130.339 72.8461C127.8 82.6932 121.584 82.2885 119.48 81.7489C117.539 81.2566 110.996 79.3209 112.496 69.2648C113.996 59.2086 119.405 57.2662 123.898 58.1699C128.391 59.0737 132.877 62.9991 130.339 72.8461Z" fill="#EB9481"/>
<path d="M112.851 68.6454C115.145 69.4682 116.394 65.8531 116.394 65.8531C116.394 65.8531 119.109 66.5276 120.751 62.4066C120.964 63.426 121.411 64.3826 122.057 65.2017C122.703 66.0207 123.532 66.68 124.477 67.1278C125.156 67.4988 123.358 64.6998 123.358 64.6998C123.358 64.6998 125.394 68.4498 131.353 69.367C131.773 69.4277 132.995 63.2969 129.317 59.7695C125.638 56.2421 121.294 56.0061 117.623 57.8068C116.706 57.9407 115.838 58.2977 115.094 58.8461C114.35 59.3945 113.755 60.1172 113.36 60.9498C111.935 63.8297 111.962 68.3284 112.851 68.6454Z" fill="#06142D"/>
<path d="M114.118 69.7773C114.118 69.7773 113.072 66.0543 111.403 66.324C109.733 66.5938 109.828 71.4836 111.226 72.637C111.395 72.7973 111.594 72.9221 111.812 73.0038C112.03 73.0855 112.262 73.1224 112.495 73.1123C112.728 73.1023 112.956 73.0454 113.166 72.9451C113.376 72.8449 113.564 72.7033 113.717 72.5291L114.118 69.7773Z" fill="#EB9481"/>
<path d="M111.491 67.7268V67.7673C112.462 68.6103 112.686 69.8513 112.72 71.0721C112.695 70.9369 112.64 70.8087 112.56 70.6966C112.48 70.5845 112.376 70.4911 112.256 70.423C112.136 70.3549 112.002 70.3138 111.864 70.3024C111.726 70.291 111.587 70.3097 111.457 70.3572C111.424 70.3572 111.457 70.4246 111.457 70.4314C111.676 70.4366 111.888 70.5096 112.063 70.6402C112.239 70.7707 112.368 70.9524 112.435 71.1598C112.547 71.508 112.62 71.8678 112.652 72.2322C112.652 72.3536 112.869 72.3603 112.876 72.2322C113.392 70.7754 112.978 68.4013 111.491 67.7268Z" fill="#06142D"/>
<path d="M128.622 71.639C128.412 71.5327 128.209 71.4156 128.011 71.2882C127.78 71.1466 127.577 71.0657 127.455 70.8094C127.429 70.7338 127.429 70.6519 127.455 70.5764C127.481 70.5009 127.531 70.4358 127.597 70.3912C127.742 70.3215 127.902 70.2916 128.062 70.3046C128.222 70.3177 128.376 70.3732 128.507 70.4654C128.795 70.6071 129.024 70.8462 129.151 71.1399C129.184 71.2125 129.193 71.2934 129.178 71.3715C129.162 71.4495 129.123 71.5208 129.064 71.5756C129.006 71.6304 128.933 71.6659 128.853 71.6772C128.774 71.6886 128.693 71.6752 128.622 71.639Z" fill="#06142D"/>
<path d="M122.649 68.4419C122.873 68.493 123.099 68.5313 123.328 68.5565C123.565 68.641 123.824 68.641 124.061 68.5565C124.13 68.5152 124.183 68.4526 124.212 68.3782C124.242 68.3039 124.246 68.222 124.224 68.1451C124.155 68.0004 124.049 67.8763 123.917 67.7851C123.785 67.6939 123.631 67.639 123.47 67.6258C123.15 67.5514 122.813 67.5996 122.527 67.7607C122.468 67.8031 122.422 67.8611 122.395 67.9281C122.368 67.995 122.36 68.0682 122.373 68.1393C122.386 68.2104 122.419 68.2765 122.467 68.33C122.516 68.3835 122.579 68.4223 122.649 68.4419Z" fill="#06142D"/>
<path d="M123.267 71.3761C123.267 71.3761 123.206 71.3761 123.2 71.4166C123.023 72.091 122.704 72.8262 122.032 72.8599V72.9004C122.779 73.0218 123.193 72.0371 123.267 71.3761Z" fill="#06142D"/>
<path d="M122.875 70.5059C121.823 70.1012 121.09 72.2123 122.06 72.59C123.031 72.9676 123.75 70.8431 122.875 70.5059Z" fill="#06142D"/>
<path d="M122.412 70.4722C122.188 70.5262 121.93 70.6746 121.7 70.6206C121.469 70.5667 121.313 70.2699 121.218 70.0001C121.218 70.0001 121.218 70.0001 121.177 70.0001C121.076 70.1812 121.048 70.3941 121.1 70.5948C121.151 70.7956 121.279 70.969 121.455 71.0792C121.651 71.1482 121.866 71.1414 122.057 71.0602C122.248 70.9789 122.402 70.8293 122.487 70.6409C122.535 70.5869 122.507 70.452 122.412 70.4722Z" fill="#06142D"/>
<path d="M125.005 75.2C125.005 75.2 124.815 76.2252 124.659 76.6906C124.659 76.7378 124.523 76.6906 124.367 76.6906C123.943 76.6325 123.543 76.4587 123.212 76.1884C122.882 75.9181 122.633 75.562 122.494 75.1595C122.488 75.1479 122.488 75.1346 122.492 75.1226C122.497 75.1106 122.506 75.1008 122.517 75.0955C122.529 75.0901 122.543 75.0896 122.555 75.094C122.567 75.0984 122.577 75.1074 122.582 75.1191C123.042 75.7151 123.682 76.1498 124.408 76.3601C124.489 76.2454 124.679 74.593 124.754 74.6132C125.106 74.7622 125.435 74.9598 125.731 75.2C126.193 73.0687 126.308 70.8902 126.803 68.7792C126.808 68.7657 126.817 68.7539 126.828 68.7456C126.84 68.7373 126.854 68.7328 126.868 68.7328C126.882 68.7328 126.896 68.7373 126.908 68.7456C126.919 68.7539 126.928 68.7657 126.932 68.7792C126.881 71.124 126.594 73.4579 126.077 75.7463C125.982 76.0093 125.168 75.3416 125.005 75.2Z" fill="#06142D"/>
<path d="M129.18 73.0015C128.869 72.7646 128.493 72.626 128.101 72.6036C127.895 72.592 127.688 72.6171 127.49 72.6778C127.292 72.7543 127.111 72.8715 126.961 73.0217L126.689 73.2983L127.07 73.3657C127.343 73.4138 127.611 73.4884 127.87 73.5883C128.135 73.6884 128.369 73.8558 128.549 74.0739C128.472 73.764 128.278 73.4956 128.006 73.3252C127.739 73.1465 127.439 73.0227 127.124 72.961L127.239 73.305C127.473 73.0897 127.776 72.9632 128.094 72.9475C128.457 72.918 128.822 72.9362 129.18 73.0015Z" fill="#06142D"/>
<path d="M127.685 74.1474C127.424 74.002 127.183 73.8254 126.966 73.6213C126.918 73.5673 126.735 73.338 126.762 73.2908C126.833 73.1614 126.919 73.0413 127.02 72.9333C126.886 73.0177 126.771 73.1278 126.681 73.2571C126.676 73.3418 126.69 73.4265 126.723 73.5048C126.756 73.5831 126.807 73.6529 126.871 73.709C127.098 73.9248 127.379 74.0762 127.685 74.1474Z" fill="#06142D"/>
</svg>
