<svg width="249" height="232" viewBox="0 0 249 232" fill="none" xmlns="http://www.w3.org/2000/svg">
<g clip-path="url(#clip0_1075_9307)">
<rect x="88" y="65" width="157" height="158" rx="22" fill="white"/>
<path d="M167.716 164.467H78.4614C70.959 164.467 64.8555 158.363 64.8555 150.861V61.6059C64.8555 54.1035 70.959 48 78.4614 48H167.716C175.219 48 181.322 54.1035 181.322 61.6059V150.861C181.322 158.363 175.219 164.467 167.716 164.467ZM78.4614 50.1769C72.1493 50.1769 67.0324 55.2939 67.0324 61.6059V150.861C67.0324 157.173 72.1493 162.29 78.4614 162.29H140.982C162.059 162.29 179.145 145.203 179.145 124.127V61.6059C179.145 55.2939 174.028 50.1769 167.716 50.1769H78.4614V50.1769Z" fill="#E9ECEF"/>
<path d="M88.0828 59.4585C83.8584 59.4585 80.4219 62.895 80.4219 67.1194V79.1103C80.4219 83.3347 83.8584 86.7712 88.0828 86.7712H100.074C104.298 86.7712 107.735 83.3347 107.735 79.1103V67.1194C107.735 62.895 104.298 59.4585 100.074 59.4585H88.0828Z" fill="#E9ECEF"/>
<path d="M88.0828 93.2148C83.8584 93.2148 80.4219 96.6514 80.4219 100.876V112.867C80.4219 117.091 83.8584 120.528 88.0828 120.528H100.074C104.298 120.528 107.735 117.091 107.735 112.867V100.876C107.735 96.6514 104.298 93.2148 100.074 93.2148H88.0828Z" fill="#E9ECEF"/>
<path d="M88.0828 126.971C83.8584 126.971 80.4219 130.407 80.4219 134.632V146.623C80.4219 150.847 83.8584 154.283 88.0828 154.283H100.074C104.298 154.283 107.735 150.847 107.735 146.623V134.632C107.735 130.407 104.298 126.971 100.074 126.971H88.0828Z" fill="#E9ECEF"/>
<path d="M96.0358 30.2031C90.713 30.2031 86.3828 34.5333 86.3828 39.8561V54.9651C86.3828 60.2879 90.713 64.618 96.0358 64.618H111.145C116.468 64.618 120.798 60.2879 120.798 54.9651V39.8561C120.798 34.5333 116.468 30.2031 111.145 30.2031H96.0358Z" fill="#FCFC30"/>
<path d="M145.778 72.4268C140.455 72.4268 136.125 76.7569 136.125 82.0797V97.1887C136.125 102.512 140.455 106.842 145.778 106.842H160.887C166.21 106.842 170.54 102.512 170.54 97.1887V82.0797C170.54 76.7569 166.21 72.4268 160.887 72.4268H145.778Z" fill="#7EFFE9"/>
<path d="M124.155 224.504L121.085 224.478L119.727 212.363L124.257 212.401L124.155 224.504Z" fill="#A0616A"/>
<path d="M114.32 229.385C114.314 230.141 114.923 230.763 115.681 230.77L121.784 230.821L122.852 228.655L123.244 230.832L125.547 230.853L124.966 223.089L124.164 223.036L120.897 222.811L119.843 222.74L119.824 224.937L114.922 228.262C114.549 228.515 114.324 228.935 114.32 229.385H114.32Z" fill="#343A40"/>
<path d="M139.768 224.504L136.699 224.478L135.34 212.363L139.87 212.401L139.768 224.504Z" fill="#A0616A"/>
<path d="M129.938 229.385C129.931 230.141 130.54 230.763 131.298 230.77L137.401 230.821L138.469 228.655L138.862 230.832L141.164 230.853L140.583 223.089L139.782 223.036L136.514 222.811L135.46 222.74L135.441 224.937L130.539 228.262C130.166 228.515 129.941 228.935 129.938 229.385Z" fill="#343A40"/>
<path d="M112.109 126.553L124.551 126.946L136.338 129.565C136.338 129.565 135.159 131.006 139.088 134.935C139.088 134.935 144.327 144.103 140.66 153.008L139.088 188.631C139.088 188.631 143.671 213.743 140.17 221.735L135.542 222.025L127.713 188.921L123.896 153.27L122.063 188.369C122.063 188.369 129.077 212.461 124.648 222.025L119.636 221.735L111.062 188.369C111.062 188.369 107.395 149.865 107.918 142.531C108.442 135.197 112.109 126.553 112.109 126.553H112.109Z" fill="#212529"/>
<path d="M153.892 70.2635C152.192 70.7039 151.17 72.4397 151.61 74.1405C151.812 74.9199 152.287 75.5539 152.905 75.9727L152.905 75.9771L152.664 81.8213L157.136 83.891L157.493 74.8977L157.462 74.8987C157.85 74.2078 157.984 73.3732 157.769 72.5457C157.329 70.8448 155.593 69.8231 153.892 70.2635V70.2635Z" fill="#CB989F"/>
<path d="M128.896 91.1212C127.957 90.1899 127.412 88.9273 127.391 87.5543C127.364 85.7125 128.287 84.0408 129.86 83.0826C131.672 81.9791 133.938 82.0908 135.632 83.3667L149.676 93.9407L152.179 78.708L157.551 80.4375L156.269 100.273C156.18 101.66 155.396 102.882 154.172 103.542C152.948 104.202 151.496 104.185 150.287 103.498L129.992 91.951C129.584 91.719 129.217 91.4393 128.896 91.1212V91.1212Z" fill="#BBB3FE"/>
<path d="M107.48 61.7432C108.378 63.2534 107.881 65.2055 106.371 66.1033C105.679 66.5146 104.895 66.6301 104.161 66.4926L104.159 66.4958L100.215 70.8159L95.582 69.137L101.66 62.499L101.682 62.5217C101.893 61.758 102.385 61.071 103.12 60.6342C104.63 59.7364 106.582 60.2329 107.48 61.7432Z" fill="#CB989F"/>
<path d="M109.183 93.9716L86.641 87.8825C85.2987 87.5198 84.256 86.5093 83.8515 85.1791C83.4469 83.8489 83.7506 82.4289 84.6637 81.3804L97.7184 66.3921L102.751 68.9465L93.8038 81.5257L111.222 83.9043C113.323 84.1914 115.011 85.7073 115.521 87.7665C115.963 89.5547 115.442 91.3917 114.126 92.6804C113.145 93.6411 111.869 94.154 110.546 94.1538C110.094 94.1538 109.636 94.0939 109.183 93.9716H109.183Z" fill="#BBB3FE"/>
<path d="M141.325 131.794L109.802 133.24C108.936 131.925 109.171 129.948 110.383 127.473C114.961 118.126 111.484 100.443 109.145 91.2356C108.489 88.6523 110.251 86.084 112.903 85.8188L115.875 85.5216L118.623 77.1348H128.245L132.237 81.6953L139.011 85.8108C137.778 98.5124 132.524 116.448 140.009 125.443C141.646 127.41 142.111 129.537 141.325 131.794Z" fill="#BBB3FE"/>
<path d="M122.208 77.3286C127.384 77.3286 131.581 73.1325 131.581 67.9563C131.581 62.7801 127.384 58.584 122.208 58.584C117.032 58.584 112.836 62.7801 112.836 67.9563C112.836 73.1325 117.032 77.3286 122.208 77.3286Z" fill="#CB989F"/>
<path d="M132.813 61.9568C134.117 57.2026 119.905 53.1259 117.143 56.9544C116.759 56.4101 115.34 56.0795 114.688 56.2464C114.037 56.4134 113.49 56.8308 112.955 57.2349C112.221 57.7993 111.459 58.3837 111.008 59.1951C110.554 60.0033 110.484 61.1053 111.095 61.8065C111.579 62.3642 112.43 65.3277 113.158 65.4746C113.666 65.5781 114.093 65.6616 114.461 65.7217C114.788 65.2442 115.622 64.6443 115.562 64.0666C116.057 64.3939 115.876 64.9696 115.776 65.5581C115.445 67.5176 107.969 82.686 112.251 78.2162C112.675 78.4667 113.199 78.7004 113.804 78.9142C114.829 77.368 115.67 75.5447 116.225 73.6379L116.228 73.6732C116.419 75.3302 117.63 76.6899 119.232 77.154C125.659 79.0159 130.858 76.2839 132.646 71.357C131.992 70.0279 131.706 70.1723 131.765 70.1328C132.582 69.582 133.706 69.9422 134.057 70.863C134.16 71.1345 134.255 71.3663 134.336 71.5407C135.268 68.2079 136.376 68.689 132.813 61.9568H132.813Z" fill="#343A40"/>
<path d="M128.376 58.5079L127.719 55.1516C127.664 54.8695 127.612 54.5634 127.739 54.3056C127.902 53.9744 128.323 53.8371 128.688 53.8899C129.054 53.9427 129.327 54.2766 129.691 54.3409C130.955 54.5645 132.627 53.3154 133.08 56.4754C133.269 57.7929 135.371 57.9321 136.074 59.0628C136.776 60.1936 136.862 61.8257 135.904 62.7495C135.138 63.4873 133.909 63.5724 132.915 63.1956C131.922 62.8187 131.124 62.0574 130.427 61.2546C129.73 60.4519 129.099 59.5832 128.296 58.8874" fill="#343A40"/>
<path d="M133.313 63.6125C130.748 63.2543 129 62.3216 128.117 60.8406C126.961 58.9019 127.736 56.7672 127.769 56.6772L128.311 56.8788C128.304 56.8984 127.602 58.8525 128.617 60.5494C129.407 61.8694 131.014 62.7074 133.393 63.0398L133.313 63.6125Z" fill="#6C63FF"/>
<path d="M167.719 65.8017C153.041 65.8017 141.098 53.8583 141.098 39.1799C141.098 24.5015 153.041 12.5581 167.719 12.5581C182.398 12.5581 194.341 24.5015 194.341 39.1799C194.341 53.8583 182.398 65.8017 167.719 65.8017ZM167.719 23.2068C158.911 23.2068 151.746 30.3718 151.746 39.1799C151.746 47.988 158.911 55.153 167.719 55.153C176.528 55.153 183.693 47.988 183.693 39.1799C183.693 30.3718 176.528 23.2068 167.719 23.2068Z" fill="#465EFF"/>
<path d="M208.678 83.8938C207.373 83.8938 206.065 83.418 205.039 82.4535L180.052 59.0372C177.905 57.0276 177.795 53.6583 179.808 51.5134C181.815 49.3608 185.184 49.2542 187.331 51.2691L212.318 74.6853C214.465 76.695 214.575 80.0643 212.562 82.2091C211.515 83.3296 210.098 83.8938 208.678 83.8938Z" fill="#465EFF"/>
<path d="M77.6197 38.9216C76.9494 38.9216 76.2777 38.6772 75.7502 38.1818L62.9162 26.1543C61.8132 25.122 61.7571 23.3914 62.7907 22.2897C63.8216 21.1841 65.5522 21.1293 66.6552 22.1642L79.4892 34.1917C80.5922 35.224 80.6483 36.9546 79.6147 38.0563C79.0766 38.6318 78.3488 38.9216 77.6197 38.9216Z" fill="#FF6F67"/>
<path d="M64.7865 38.9216C65.4569 38.9216 66.1286 38.6772 66.656 38.1818L79.49 26.1543C80.593 25.122 80.6491 23.3914 79.6156 22.2897C78.5847 21.1841 76.8541 21.1293 75.7511 22.1642L62.917 34.1917C61.814 35.224 61.758 36.9546 62.7915 38.0563C63.3297 38.6318 64.0574 38.9216 64.7865 38.9216Z" fill="#FF6F67"/>
<path d="M224.387 224.197C225.317 224.255 225.831 223.1 225.128 222.427L225.058 222.148C225.067 222.126 225.076 222.104 225.085 222.082C226.026 219.839 229.213 219.855 230.145 222.1C230.972 224.094 232.026 226.09 232.285 228.197C232.402 229.127 232.349 230.075 232.143 230.988C234.082 226.752 235.102 222.127 235.102 217.476C235.102 216.308 235.038 215.139 234.908 213.973C234.8 213.02 234.652 212.072 234.46 211.133C233.422 206.057 231.175 201.223 227.934 197.185C226.375 196.333 225.076 195.002 224.291 193.406C224.009 192.83 223.788 192.211 223.684 191.58C223.861 191.604 224.352 188.903 224.218 188.737C224.466 188.362 224.908 188.176 225.178 187.81C226.52 185.99 228.369 186.308 229.335 188.781C231.397 189.822 231.417 191.548 230.152 193.208C229.347 194.265 229.236 195.694 228.53 196.825C228.602 196.918 228.678 197.008 228.751 197.101C230.083 198.81 231.236 200.648 232.208 202.578C231.933 200.433 232.338 197.848 233.03 196.182C233.817 194.284 235.291 192.686 236.59 191.045C238.15 189.074 241.349 189.934 241.624 192.432C241.626 192.457 241.629 192.481 241.632 192.505C241.439 192.614 241.25 192.729 241.065 192.851C240.012 193.548 240.376 195.18 241.624 195.373L241.652 195.377C241.582 196.072 241.463 196.761 241.289 197.438C242.955 203.881 239.358 206.228 234.222 206.334C234.108 206.392 233.998 206.45 233.884 206.505C234.405 207.97 234.82 209.473 235.129 210.996C235.405 212.342 235.597 213.703 235.704 215.069C235.838 216.793 235.826 218.526 235.681 220.247L235.69 220.185C236.059 218.29 237.088 216.52 238.582 215.293C240.808 213.464 243.953 212.791 246.354 211.321C247.51 210.614 248.992 211.528 248.79 212.868L248.78 212.932C248.422 213.078 248.074 213.246 247.736 213.435C247.543 213.544 247.354 213.66 247.17 213.782C246.117 214.478 246.481 216.111 247.728 216.303L247.757 216.308C247.777 216.31 247.794 216.313 247.815 216.316C247.201 217.773 246.347 219.124 245.277 220.29C244.235 225.915 239.761 226.449 234.974 224.811H234.972C234.448 227.09 233.684 229.316 232.701 231.439H224.591C224.561 231.348 224.535 231.255 224.509 231.165C225.259 231.212 226.015 231.168 226.753 231.032C226.152 230.293 225.55 229.549 224.948 228.811C224.934 228.796 224.922 228.782 224.91 228.767C224.605 228.389 224.297 228.014 223.992 227.636L223.992 227.636C223.972 226.476 224.112 225.319 224.387 224.197L224.387 224.197Z" fill="#E9ECEF"/>
<path d="M0 231.463C0 231.76 0.238557 231.998 0.535625 231.998H248.211C248.508 231.998 248.747 231.76 248.747 231.463C248.747 231.166 248.508 230.927 248.211 230.927H0.535625C0.238557 230.927 0 231.166 0 231.463Z" fill="#CCCCCC"/>
</g>
<defs>
<clipPath id="clip0_1075_9307">
<rect width="248.81" height="231.999" fill="white"/>
</clipPath>
</defs>
</svg>
